<?xml version="1.0" standalone="no"?>
<!DOCTYPE svg PUBLIC "-//W3C//DTD SVG 20010904//EN"
 "http://www.w3.org/TR/2001/REC-SVG-20010904/DTD/svg10.dtd">
<svg version="1.0" xmlns="http://www.w3.org/2000/svg"
 width="600.000000pt" height="600.000000pt" viewBox="0 0 600.000000 600.000000"
 preserveAspectRatio="xMidYMid meet">
<defs>
        <linearGradient id="grad1" x1="0%" y1="0%" x2="100%" y2="0%">
        <stop offset="0%" stop-color="#FFDB6E" />
        <stop offset="100%" stop-color="#FFBC5E" />
        </linearGradient>
    </defs>
<g transform="translate(0.000000,600.000000) scale(0.100000,-0.100000)"
fill="url(#grad1)" stroke="none">
<path d="M2895 5799 c-83 -14 -1606 -476 -1662 -504 -106 -54 -178 -140 -214
-256 -18 -57 -19 -99 -19 -630 l0 -569 -22 -5 c-13 -2 -102 -16 -198 -31 -225
-33 -295 -49 -346 -79 -86 -51 -154 -157 -154 -241 0 -48 226 -1226 243 -1267
23 -54 91 -122 147 -146 72 -31 124 -35 225 -17 50 9 93 16 98 16 4 0 7 -20 7
-44 0 -66 27 -211 57 -301 76 -234 242 -481 462 -688 323 -304 875 -627 1386
-812 l96 -35 97 36 c142 53 307 126 477 211 410 205 698 405 950 657 215 216
342 406 414 621 33 98 61 242 61 311 0 24 3 44 8 44 4 0 48 -7 97 -16 101 -18
153 -14 225 17 56 24 124 92 147 146 17 41 243 1219 243 1267 0 84 -68 190
-154 241 -51 30 -121 46 -346 79 -96 15 -185 29 -197 31 l-23 5 0 569 c0 531
-1 573 -19 630 -36 116 -108 202 -214 256 -62 31 -1581 490 -1670 505 -71 11
-131 11 -202 -1z m990 -444 c429 -130 795 -245 812 -256 18 -11 42 -32 54 -47
49 -63 49 -58 49 -644 l0 -550 -27 6 c-42 9 -376 43 -578 60 -437 37 -556 41
-1195 41 -639 0 -758 -4 -1195 -41 -202 -17 -536 -51 -578 -60 l-27 -6 0 550
c0 586 0 581 49 644 12 15 36 36 54 47 17 11 367 121 777 244 410 124 768 232
795 241 35 11 77 15 140 12 84 -3 143 -20 870 -241z m-70 -1514 c555 -37 1064
-94 1500 -167 166 -28 201 -41 244 -90 60 -67 61 -47 -64 -705 -63 -329 -120
-610 -128 -626 -17 -31 -51 -65 -84 -82 -33 -17 -95 -14 -275 15 -780 122
-1555 173 -2325 153 -586 -15 -1113 -63 -1691 -153 -187 -30 -242 -32 -280
-12 -31 16 -64 50 -81 84 -7 12 -63 292 -126 621 -125 658 -124 638 -64 705
43 49 78 62 244 90 463 78 1042 141 1525 166 113 6 234 12 270 14 138 7 1183
-3 1335 -13z m-760 -2096 l48 -155 164 0 c89 0 163 -3 163 -7 0 -5 -59 -50
-130 -101 -71 -51 -127 -98 -125 -105 2 -7 24 -76 50 -155 26 -79 45 -145 44
-147 -2 -2 -62 39 -134 91 -71 52 -132 94 -135 94 -3 0 -64 -42 -135 -94 -72
-52 -132 -93 -134 -91 -1 2 18 68 44 147 26 79 48 148 50 155 2 7 -54 54 -125
105 -71 51 -130 96 -130 101 0 4 74 7 163 7 l164 0 48 155 c27 85 51 155 55
155 4 0 28 -70 55 -155z"/>
<path d="M3845 5076 c-33 -14 -55 -52 -55 -91 0 -18 -5 -25 -20 -25 -16 0 -20
-7 -20 -30 0 -23 4 -30 20 -30 19 0 20 -7 20 -95 l0 -95 40 0 40 0 0 95 0 95
30 0 c27 0 30 3 30 30 0 27 -3 30 -30 30 -25 0 -30 4 -30 25 0 27 30 48 55 39
14 -6 16 -1 13 27 -3 30 -7 34 -33 36 -16 2 -44 -3 -60 -11z"/>
<path d="M2362 5068 c-28 -28 -3 -72 39 -66 30 4 47 33 33 56 -14 21 -55 27
-72 10z"/>
<path d="M1880 4885 l0 -175 35 0 35 0 1 128 c0 70 3 120 6 112 3 -8 24 -66
46 -128 l39 -113 37 3 36 3 42 120 42 120 0 -122 1 -123 40 0 40 0 0 175 0
175 -58 0 -58 0 -39 -120 c-21 -66 -42 -117 -46 -112 -3 4 -23 58 -44 120
l-37 112 -59 0 -59 0 0 -175z"/>
<path d="M4028 5026 c-33 -8 -38 -13 -38 -38 0 -21 -5 -28 -20 -28 -16 0 -20
-7 -20 -30 0 -23 4 -30 20 -30 18 0 20 -7 20 -75 0 -68 3 -79 25 -101 20 -20
33 -25 68 -22 40 3 42 5 45 37 3 28 1 33 -14 27 -30 -11 -44 13 -44 75 0 59 0
59 30 59 27 0 30 3 30 30 0 27 -3 30 -29 30 -27 0 -30 3 -33 38 l-3 37 -37 -9z"/>
<path d="M2573 4959 c-40 -12 -80 -59 -89 -105 -14 -76 49 -154 125 -154 66 0
81 9 81 45 0 33 0 33 -30 22 -62 -23 -117 39 -89 98 16 33 50 45 92 34 25 -7
27 -6 27 25 0 29 -4 34 -31 40 -38 7 -45 7 -86 -5z"/>
<path d="M3005 4955 c-45 -16 -61 -34 -77 -86 -25 -87 38 -169 131 -169 107 0
168 95 127 195 -26 61 -105 87 -181 60z m106 -86 c15 -29 3 -86 -22 -100 -31
-16 -65 -3 -79 30 -33 81 60 145 101 70z"/>
<path d="M3290 4957 c-45 -16 -68 -55 -55 -94 7 -20 25 -35 63 -52 58 -28 63
-36 29 -52 -18 -8 -33 -7 -60 5 l-37 15 0 -33 c0 -26 5 -35 23 -40 75 -20 160
9 169 58 8 39 -12 69 -62 93 -61 29 -59 48 3 46 46 -1 47 0 47 28 0 18 -5 29
-14 29 -7 0 -26 2 -42 5 -16 2 -45 -1 -64 -8z"/>
<path d="M3543 4959 c-39 -11 -82 -62 -85 -97 -2 -44 3 -86 14 -105 29 -55
135 -74 196 -37 35 21 62 72 62 115 0 38 -25 92 -52 108 -31 20 -96 28 -135
16z m98 -88 c14 -36 2 -89 -22 -102 -50 -26 -97 25 -80 88 14 54 84 64 102 14z"/>
<path d="M2350 4835 l0 -125 40 0 40 0 0 125 0 125 -40 0 -40 0 0 -125z"/>
<path d="M2740 4835 l0 -125 40 0 40 0 0 75 c0 62 3 78 21 96 13 13 27 18 40
14 16 -6 19 -1 19 29 0 30 -3 36 -22 36 -12 0 -30 -7 -40 -17 -17 -15 -18 -15
-18 0 0 13 -9 17 -40 17 l-40 0 0 -125z"/>
<path d="M1973 4479 c-124 -36 -116 -242 11 -264 41 -7 90 7 94 28 3 15 0 16
-25 6 -67 -25 -133 20 -133 93 0 82 61 133 130 109 26 -9 30 -8 30 8 0 13 -10
20 -31 25 -36 7 -34 7 -76 -5z"/>
<path d="M2210 4350 l0 -130 70 0 c56 0 70 3 70 15 0 12 -13 15 -55 15 l-55 0
0 45 0 45 45 0 c33 0 45 4 45 15 0 11 -12 15 -45 15 l-45 0 0 40 0 40 50 0
c38 0 50 4 50 15 0 12 -14 15 -65 15 l-65 0 0 -130z"/>
<path d="M2470 4350 c0 -123 1 -130 20 -130 18 0 20 7 20 55 0 47 3 55 18 55
22 0 53 -32 76 -77 10 -21 24 -33 37 -33 22 0 19 10 -28 82 l-25 36 21 21 c13
13 21 34 21 55 0 48 -28 66 -102 66 l-58 0 0 -130z m118 88 c30 -30 0 -78 -49
-78 -28 0 -29 2 -29 45 0 44 1 45 33 45 18 0 38 -5 45 -12z"/>
<path d="M2730 4465 c0 -11 11 -15 40 -15 l40 0 0 -115 c0 -96 3 -115 15 -115
12 0 15 19 15 115 l0 115 35 0 c24 0 35 5 35 15 0 12 -17 15 -90 15 -73 0 -90
-3 -90 -15z"/>
<path d="M3030 4350 c0 -109 2 -130 15 -130 13 0 15 21 15 130 0 109 -2 130
-15 130 -13 0 -15 -21 -15 -130z"/>
<path d="M3200 4350 c0 -123 1 -130 20 -130 18 0 20 7 20 55 l0 55 45 0 c33 0
45 4 45 15 0 11 -12 15 -45 15 l-45 0 0 45 0 45 50 0 c38 0 50 4 50 15 0 12
-14 15 -70 15 l-70 0 0 -130z"/>
<path d="M3460 4350 c0 -109 2 -130 15 -130 13 0 15 21 15 130 0 109 -2 130
-15 130 -13 0 -15 -21 -15 -130z"/>
<path d="M3640 4350 l0 -130 70 0 c56 0 70 3 70 15 0 12 -13 15 -55 15 l-55 0
0 45 0 45 45 0 c33 0 45 4 45 15 0 11 -12 15 -45 15 l-45 0 0 40 0 40 50 0
c38 0 50 4 50 15 0 12 -14 15 -65 15 l-65 0 0 -130z"/>
<path d="M3900 4350 l0 -130 63 0 c118 0 176 71 147 180 -16 58 -55 80 -142
80 l-68 0 0 -130z m162 70 c11 -14 18 -39 18 -67 0 -61 -40 -103 -99 -103
l-41 0 0 101 0 102 52 -5 c38 -4 57 -12 70 -28z"/>
<path d="M2373 3075 l-61 -185 43 0 c43 0 45 1 56 39 10 34 16 40 48 45 77 13
88 9 105 -34 15 -38 18 -40 60 -40 l44 0 -55 143 c-30 78 -61 158 -68 177 -11
33 -15 35 -61 38 l-49 3 -62 -186z m114 -33 c-21 -2 -41 -1 -43 1 -3 3 12 58
33 117 3 9 15 -13 28 -50 l22 -65 -40 -3z"/>
<path d="M2720 3080 l0 -180 35 0 35 0 0 138 1 137 34 -95 c70 -192 63 -180
100 -180 l33 0 45 133 45 132 1 -132 1 -133 40 0 40 0 0 180 0 180 -59 0 -59
0 -42 -126 -42 -126 -43 124 -42 123 -62 3 -61 3 0 -181z"/>
<path d="M3230 3163 c0 -54 -3 -135 -7 -180 l-6 -83 112 0 111 0 0 30 c0 29
-1 30 -49 30 -72 0 -81 6 -81 51 l0 39 60 0 60 0 0 30 0 30 -60 0 -60 0 0 40
0 40 65 0 65 0 0 35 0 35 -105 0 -105 0 0 -97z"/>
<path d="M3516 3168 c-3 -50 -6 -131 -6 -179 l0 -87 31 -7 c17 -4 33 -4 37 0
4 3 9 60 12 126 l5 120 75 -125 75 -125 41 -1 41 0 7 77 c3 42 6 123 6 180 l0
103 -34 0 -34 0 -6 -62 c-4 -35 -7 -89 -9 -121 l-2 -58 -69 116 c-70 117 -88
135 -140 135 -22 0 -23 -5 -30 -92z"/>
<path d="M1957 3233 c-2 -5 -1 -73 4 -153 4 -80 8 -157 8 -172 l1 -28 83 0
c165 1 241 76 224 221 -13 105 -66 139 -215 139 -56 0 -103 -3 -105 -7z m204
-90 c71 -67 25 -193 -71 -193 -37 0 -37 1 -44 46 -3 26 -6 75 -6 110 0 51 3
63 18 67 31 9 76 -5 103 -30z"/>
<path d="M3910 3211 c0 -31 18 -41 73 -41 27 0 27 -1 22 -52 -2 -29 -7 -94
-10 -145 l-6 -92 36 -7 c20 -3 39 -4 42 0 5 4 17 160 22 283 1 9 16 10 51 6
l50 -6 0 35 0 35 -97 6 c-54 4 -117 7 -140 7 -41 0 -43 -2 -43 -29z"/>
<path d="M1785 3108 l7 -123 -83 110 -84 110 -49 3 -49 3 6 -63 c4 -35 9 -116
13 -180 l7 -118 38 0 c45 0 43 -7 31 163 -7 80 -6 86 8 69 8 -10 49 -64 91
-118 l76 -100 43 4 42 4 -6 52 c-3 28 -8 98 -11 156 -9 150 -9 150 -51 150
l-36 0 7 -122z"/>
<path d="M4238 3049 c-43 -95 -76 -174 -75 -175 2 -2 21 -6 43 -10 40 -6 40
-6 57 36 l16 43 47 -7 c26 -3 55 -6 65 -6 12 0 19 -11 24 -39 6 -37 9 -40 46
-46 22 -4 43 -5 45 -2 6 6 -84 348 -94 359 -4 3 -27 9 -52 13 l-45 6 -77 -172z
m146 -24 l7 -30 -45 3 -45 4 21 51 c11 29 23 59 26 67 6 15 20 -23 36 -95z"/>
<path d="M1371 3193 c-19 -4 -22 -9 -18 -32 3 -15 9 -74 13 -130 6 -89 5 -104
-11 -121 -20 -22 -55 -26 -85 -10 -21 11 -27 37 -44 177 -6 51 -14 94 -18 93
-5 0 -23 0 -41 0 l-33 0 14 -127 c15 -141 31 -187 73 -208 37 -20 123 -19 165
1 58 28 68 60 60 199 -9 172 -8 170 -75 158z"/>
<path d="M4600 3173 c0 -10 -7 -76 -15 -148 -8 -71 -15 -144 -15 -161 l0 -31
104 -9 104 -9 5 30 c3 17 4 31 3 32 -2 2 -31 6 -66 10 l-63 6 7 81 c3 45 9
111 12 149 l7 67 -42 0 c-32 0 -41 -4 -41 -17z"/>
<path d="M946 3144 c-49 -8 -90 -15 -91 -17 -3 -2 46 -350 49 -354 1 -1 19 0
40 4 l38 6 -7 65 c-8 72 -2 81 50 82 45 0 59 13 51 45 -7 26 -8 27 -66 20
l-60 -7 0 36 c0 20 -1 39 -2 44 -2 4 25 11 60 15 36 5 62 14 62 20 0 27 -13
57 -24 56 -6 -1 -51 -8 -100 -15z"/>
<path d="M4910 3142 c-39 -19 -60 -53 -60 -95 0 -30 25 -58 105 -123 71 -56
14 -96 -74 -52 l-49 24 -6 -35 c-7 -43 -3 -48 42 -61 91 -25 177 -6 200 45 27
59 7 104 -70 155 -54 36 -71 66 -46 81 20 13 70 10 98 -6 37 -21 40 -19 40 24
0 39 0 39 -50 50 -69 15 -89 14 -130 -7z"/>
</g>
</svg>
