<svg id="svg" version="1.1" xmlns="http://www.w3.org/2000/svg" xmlns:xlink="http://www.w3.org/1999/xlink" width="400"
    height="400" viewBox="0, 0, 400,400">
    <defs>
        <linearGradient id="grad1" x1="0%" y1="0%" x2="100%" y2="0%">
        <stop offset="0%" stop-color="#FFDB6E" />
        <stop offset="100%" stop-color="#FFBC5E" />
        </linearGradient>
    </defs>
    <g id="svgg" fill="url(#grad1)" stroke="none">
        <path id="path0"
            d="M190.800 4.501 C 189.920 4.725,184.700 6.283,179.200 7.962 C 173.700 9.642,162.360 13.080,154.000 15.603 C 145.640 18.126,133.760 21.730,127.600 23.613 C 121.440 25.495,109.560 29.070,101.200 31.557 C 71.787 40.309,67.952 42.579,62.337 54.559 L 59.600 60.400 59.600 100.961 L 59.600 141.522 54.000 142.382 C 21.159 147.423,18.719 148.245,13.496 156.023 C 8.734 163.112,8.742 165.605,13.606 190.000 C 14.834 196.160,16.620 205.340,17.575 210.400 C 18.530 215.460,20.173 224.100,21.226 229.600 C 22.279 235.100,23.717 242.629,24.421 246.332 C 27.976 265.014,38.779 271.225,58.481 265.913 C 59.559 265.623,59.837 266.678,60.242 272.584 C 63.264 316.662,113.003 363.567,187.369 392.466 C 201.002 397.763,199.120 397.798,213.719 391.979 C 287.140 362.710,336.833 315.637,339.762 272.584 C 340.164 266.677,340.441 265.623,341.519 265.913 C 360.521 271.036,373.134 264.106,375.577 247.200 C 375.864 245.220,377.133 238.200,378.398 231.600 C 379.662 225.000,381.656 214.560,382.829 208.400 C 384.001 202.240,385.800 192.880,386.827 187.600 C 390.679 167.791,390.805 166.416,389.240 161.439 C 385.856 150.681,377.919 146.668,354.000 143.619 C 351.800 143.339,347.840 142.748,345.200 142.307 L 340.400 141.504 340.400 100.952 L 340.400 60.400 337.685 54.607 C 332.918 44.436,326.651 39.759,312.160 35.555 C 304.536 33.343,288.606 28.551,272.400 23.593 C 266.240 21.708,254.360 18.106,246.000 15.587 C 237.640 13.069,226.300 9.574,220.800 7.820 C 210.949 4.678,196.412 3.070,190.800 4.501 M166.000 62.400 C 166.000 64.135,162.879 63.896,162.540 62.135 C 162.321 60.999,162.678 60.730,164.129 60.935 C 165.158 61.081,166.000 61.740,166.000 62.400 M254.400 61.944 C 254.400 62.574,253.590 63.204,252.600 63.344 C 250.145 63.693,249.548 67.200,251.944 67.200 C 252.883 67.200,253.600 67.720,253.600 68.400 C 253.600 69.067,252.889 69.600,252.000 69.600 C 250.542 69.600,250.400 70.133,250.400 75.600 C 250.400 81.067,250.258 81.600,248.800 81.600 C 247.342 81.600,247.200 81.067,247.200 75.600 C 247.200 70.315,247.025 69.600,245.733 69.600 C 244.927 69.600,244.267 69.060,244.267 68.400 C 244.267 67.740,244.927 67.200,245.733 67.200 C 246.753 67.200,247.200 66.608,247.200 65.257 C 247.200 64.189,247.766 62.749,248.457 62.057 C 250.062 60.452,254.400 60.370,254.400 61.944 M143.038 68.954 C 145.953 78.331,146.320 78.345,149.129 69.190 L 151.458 61.600 154.129 61.600 L 156.800 61.600 156.800 71.600 C 156.800 81.067,156.715 81.600,155.200 81.600 C 153.702 81.600,153.600 81.067,153.600 73.200 C 153.600 68.133,153.283 64.800,152.800 64.800 C 152.360 64.800,152.000 65.462,152.000 66.272 C 152.000 67.082,150.953 70.772,149.674 74.472 C 147.020 82.149,145.044 83.616,143.536 79.028 C 137.843 61.707,137.600 61.469,137.600 73.200 C 137.600 80.133,137.390 81.600,136.400 81.600 C 135.397 81.600,135.200 79.956,135.200 71.600 L 135.200 61.600 137.976 61.600 L 140.752 61.600 143.038 68.954 M262.400 65.200 C 262.400 66.667,262.827 67.200,264.000 67.200 C 264.889 67.200,265.600 67.733,265.600 68.400 C 265.600 69.067,264.889 69.600,264.000 69.600 C 262.591 69.600,262.400 70.133,262.400 74.075 C 262.400 77.877,262.641 78.613,264.000 78.968 C 265.912 79.468,266.088 80.663,264.349 81.330 C 261.011 82.611,259.200 80.320,259.200 74.817 C 259.200 70.291,259.006 69.600,257.733 69.600 C 256.927 69.600,256.267 69.060,256.267 68.400 C 256.267 67.740,256.927 67.200,257.733 67.200 C 258.622 67.200,259.200 66.622,259.200 65.733 C 259.200 63.996,259.871 63.200,261.333 63.200 C 261.938 63.200,262.400 64.067,262.400 65.200 M165.600 74.400 C 165.600 81.067,165.481 81.600,164.000 81.600 C 162.519 81.600,162.400 81.067,162.400 74.400 C 162.400 67.733,162.519 67.200,164.000 67.200 C 165.481 67.200,165.600 67.733,165.600 74.400 M180.605 68.600 C 180.814 69.237,180.134 69.600,178.730 69.600 C 174.276 69.600,171.988 74.492,174.924 77.737 C 175.652 78.542,177.272 79.200,178.524 79.200 C 181.341 79.200,181.515 80.590,178.784 81.275 C 173.052 82.714,168.688 76.632,171.316 70.866 C 172.751 67.714,179.753 66.007,180.605 68.600 M188.400 68.000 C 187.298 69.783,189.008 70.478,190.516 68.860 C 192.467 66.765,193.600 66.743,193.600 68.800 C 193.600 69.860,193.067 70.400,192.018 70.400 C 189.545 70.400,187.792 73.813,188.124 77.984 C 188.387 81.289,188.256 81.600,186.606 81.600 C 184.865 81.600,184.800 81.340,184.800 74.400 C 184.800 67.209,184.803 67.200,186.847 67.200 C 188.008 67.200,188.680 67.546,188.400 68.000 M209.400 70.018 C 215.289 76.795,204.031 85.865,198.001 79.201 C 196.300 77.321,196.099 71.809,197.663 69.924 C 200.424 66.597,206.470 66.646,209.400 70.018 M223.005 68.600 C 223.227 69.275,222.402 69.600,220.467 69.600 C 216.633 69.600,216.698 71.427,220.600 73.334 C 226.898 76.412,222.846 83.373,216.018 81.206 C 213.041 80.261,214.168 78.736,217.600 79.063 C 220.345 79.325,220.800 79.146,220.800 77.805 C 220.800 76.725,219.812 75.855,217.600 74.986 C 213.815 73.499,213.186 70.549,216.200 68.418 C 218.239 66.976,222.509 67.090,223.005 68.600 M238.338 68.368 C 243.810 71.198,241.969 80.058,235.663 81.241 C 229.315 82.432,224.932 76.132,228.052 70.302 C 229.658 67.301,234.511 66.389,238.338 68.368 M200.765 70.843 C 199.424 72.458,199.443 76.364,200.798 77.998 C 202.353 79.872,205.736 79.182,207.117 76.710 C 209.699 72.089,204.056 66.877,200.765 70.843 M231.228 71.147 C 228.671 75.925,231.729 80.482,236.313 78.723 C 237.950 78.095,238.787 73.418,237.645 71.284 C 236.459 69.067,232.388 68.980,231.228 71.147 M157.800 95.786 C 152.807 96.236,152.452 101.513,157.400 101.734 L 160.400 101.869 157.400 102.183 C 152.436 102.702,152.779 108.562,157.800 109.014 L 161.200 109.320 157.400 109.460 L 153.600 109.600 153.600 102.400 L 153.600 95.200 157.400 95.340 L 161.200 95.480 157.800 95.786 M176.520 95.812 C 177.499 96.437,177.911 98.034,177.600 100.000 C 177.496 100.660,177.182 100.120,176.902 98.800 C 176.460 96.715,176.000 96.367,173.396 96.152 L 170.400 95.903 170.400 99.239 C 170.400 102.568,170.406 102.574,173.144 102.255 C 174.653 102.079,175.702 102.235,175.475 102.602 C 175.248 102.970,175.537 103.884,176.117 104.635 C 177.067 105.863,177.007 105.860,175.523 104.600 C 172.482 102.019,170.533 102.749,170.186 106.600 C 170.017 108.470,169.817 106.670,169.740 102.600 L 169.600 95.200 172.600 95.212 C 174.250 95.219,176.014 95.489,176.520 95.812 M192.600 95.773 C 190.410 96.105,190.399 96.137,190.235 103.053 L 190.071 110.000 189.805 103.048 L 189.539 96.097 186.970 95.776 C 185.556 95.600,186.740 95.452,189.600 95.448 C 192.460 95.443,193.810 95.590,192.600 95.773 M202.988 106.200 C 202.823 108.290,202.688 106.580,202.688 102.400 C 202.688 98.220,202.823 96.510,202.988 98.600 C 203.153 100.690,203.153 104.110,202.988 106.200 M217.811 95.763 C 216.827 95.953,215.027 95.958,213.811 95.774 C 212.595 95.590,213.400 95.435,215.600 95.429 C 217.800 95.423,218.795 95.573,217.811 95.763 M228.588 106.200 C 228.423 108.290,228.288 106.580,228.288 102.400 C 228.288 98.220,228.423 96.510,228.588 98.600 C 228.753 100.690,228.753 104.110,228.588 106.200 M241.800 95.786 C 236.807 96.236,236.452 101.513,241.400 101.734 L 244.400 101.869 241.400 102.183 C 236.436 102.702,236.779 108.562,241.800 109.014 L 245.200 109.320 241.400 109.460 L 237.600 109.600 237.600 102.400 L 237.600 95.200 241.400 95.340 L 245.200 95.480 241.800 95.786 M257.000 95.786 L 253.600 96.092 253.600 102.395 L 253.600 108.699 256.200 109.021 C 258.760 109.339,258.754 109.346,255.800 109.472 L 252.800 109.600 252.800 102.400 L 252.800 95.200 256.600 95.340 L 260.400 95.480 257.000 95.786 M263.237 97.669 C 263.728 98.586,263.920 99.546,263.665 99.802 C 263.409 100.057,263.200 99.872,263.200 99.390 C 263.200 98.909,262.634 97.949,261.943 97.257 C 261.251 96.566,261.059 96.000,261.515 96.000 C 261.971 96.000,262.746 96.751,263.237 97.669 M135.765 104.200 C 135.574 105.190,135.418 104.380,135.418 102.400 C 135.418 100.420,135.574 99.610,135.765 100.600 C 135.955 101.590,135.955 103.210,135.765 104.200 M141.869 108.855 L 145.200 109.400 142.289 109.500 C 140.514 109.561,138.782 109.054,137.851 108.200 C 137.011 107.430,136.823 107.140,137.432 107.555 C 138.040 107.971,140.037 108.556,141.869 108.855 M235.600 141.615 C 276.950 143.534,312.017 146.788,346.800 151.935 C 384.706 157.543,383.436 155.808,376.412 192.400 C 371.441 218.293,369.376 229.150,367.510 239.200 C 363.957 258.331,361.697 259.940,342.700 256.859 C 326.006 254.151,311.029 252.033,302.800 251.217 C 298.400 250.781,289.580 249.883,283.200 249.222 C 237.880 244.527,162.120 244.527,116.800 249.222 C 110.420 249.883,101.600 250.781,97.200 251.217 C 88.971 252.033,73.994 254.151,57.300 256.859 C 39.164 259.801,35.890 257.901,33.238 242.893 C 32.529 238.882,31.263 232.180,30.424 228.000 C 29.585 223.820,27.985 215.540,26.868 209.600 C 25.752 203.660,23.740 193.090,22.398 186.112 C 16.715 156.570,15.960 157.364,55.200 151.589 C 84.120 147.333,105.014 145.246,143.200 142.800 C 174.764 140.778,208.304 140.348,235.600 141.615 M173.350 162.196 L 167.100 162.469 167.350 164.635 C 167.593 166.741,167.757 166.806,173.403 167.035 L 179.206 167.270 173.203 176.152 C 165.338 187.789,165.322 188.802,173.000 188.793 C 184.153 188.780,187.320 188.078,187.042 185.684 C 186.801 183.612,186.762 183.601,180.486 183.834 L 174.171 184.068 175.621 181.834 C 176.419 180.605,179.350 176.183,182.136 172.006 C 188.412 162.595,188.542 161.543,183.400 161.761 C 181.310 161.850,176.788 162.045,173.350 162.196 M191.200 171.081 C 191.200 185.304,192.931 188.245,201.258 188.170 C 209.753 188.094,212.000 184.477,212.000 170.879 L 212.000 161.600 209.200 161.600 L 206.400 161.600 206.400 170.622 C 206.400 181.167,205.568 183.200,201.253 183.200 C 197.060 183.200,196.435 181.725,196.116 171.077 L 195.831 161.600 193.516 161.600 L 191.200 161.600 191.200 171.081 M217.433 170.800 C 217.097 189.357,216.849 187.566,219.800 187.851 L 222.400 188.101 222.526 183.851 C 222.595 181.513,222.635 179.150,222.615 178.600 C 222.498 175.439,225.990 178.194,229.583 184.097 C 231.642 187.479,235.954 189.754,237.542 188.296 C 237.974 187.900,234.692 181.931,232.393 178.934 L 230.656 176.667 232.928 174.395 C 239.129 168.194,233.922 161.600,222.826 161.600 L 217.600 161.600 217.433 170.800 M148.955 164.600 C 148.494 165.810,146.685 171.120,144.937 176.400 C 143.188 181.680,141.503 186.630,141.193 187.400 C 140.712 188.594,141.100 188.800,143.835 188.800 C 146.881 188.800,147.076 188.650,147.747 185.800 C 148.453 182.801,148.455 182.800,153.075 182.559 L 157.696 182.317 158.969 185.559 C 160.105 188.448,160.533 188.800,162.921 188.800 C 166.472 188.800,166.769 190.164,159.057 171.019 L 155.600 162.438 152.697 162.419 C 150.259 162.403,149.660 162.752,148.955 164.600 M240.521 167.800 C 240.241 170.770,240.009 176.710,240.006 181.000 L 240.000 188.800 247.600 188.800 L 255.200 188.800 255.200 186.400 L 255.200 184.000 250.400 184.000 L 245.600 184.000 245.600 180.793 L 245.600 177.586 250.000 178.103 L 254.400 178.620 254.400 176.168 C 254.400 173.795,254.257 173.697,250.000 173.165 C 245.616 172.618,245.600 172.606,245.600 169.834 L 245.600 167.053 250.530 167.326 C 255.376 167.595,255.461 167.564,255.552 165.484 C 255.655 163.153,253.029 162.400,244.804 162.400 L 241.031 162.400 240.521 167.800 M228.791 167.590 C 230.691 169.878,229.117 172.800,225.985 172.800 C 223.269 172.800,223.200 172.720,223.200 169.600 C 223.200 166.096,226.552 164.891,228.791 167.590 M153.507 177.456 C 150.257 177.795,150.181 177.644,151.364 173.218 L 152.380 169.420 154.174 173.310 L 155.968 177.200 153.507 177.456 M194.721 202.324 C 187.424 205.638,188.905 212.744,197.828 217.224 C 204.580 220.615,201.252 225.392,193.838 222.951 L 190.400 221.819 190.400 224.424 C 190.400 227.552,191.303 228.000,197.604 228.000 C 209.723 228.000,210.870 217.821,199.400 212.072 C 192.259 208.492,197.242 203.828,205.000 206.830 C 206.169 207.282,206.400 206.912,206.400 204.586 C 206.400 200.537,200.971 199.486,194.721 202.324 M168.622 202.045 C 168.377 202.290,168.358 206.340,168.580 211.045 L 168.984 219.600 163.160 211.000 C 157.454 202.574,157.274 202.400,154.268 202.400 L 151.200 202.400 151.287 210.600 C 151.441 225.133,152.028 228.357,154.573 228.651 L 156.747 228.901 156.973 219.974 L 157.200 211.047 162.858 219.324 C 168.149 227.065,168.705 227.616,171.458 227.848 L 174.400 228.097 174.396 222.648 C 174.382 204.382,172.610 198.057,168.622 202.045 M180.180 214.600 L 180.400 227.600 183.000 227.851 L 185.600 228.101 185.600 214.851 L 185.600 201.600 182.780 201.600 L 179.960 201.600 180.180 214.600 M209.600 204.000 C 209.600 206.320,209.723 206.400,213.291 206.400 L 216.982 206.400 216.691 217.000 L 216.400 227.600 218.891 227.843 C 221.999 228.145,222.400 226.643,222.400 214.700 L 222.400 206.400 226.000 206.400 C 229.467 206.400,229.600 206.311,229.600 204.000 L 229.600 201.600 219.600 201.600 L 209.600 201.600 209.600 204.000 M232.650 212.400 C 232.568 218.340,232.478 224.190,232.450 225.400 C 232.407 227.298,232.748 227.634,234.931 227.846 L 237.463 228.091 238.025 222.846 C 238.334 219.961,238.748 217.600,238.946 217.600 C 240.424 217.600,242.664 219.789,244.091 222.627 C 246.952 228.318,247.670 228.800,253.292 228.800 L 258.336 228.800 259.316 225.530 C 260.229 222.481,260.455 222.291,262.648 222.730 C 263.941 222.988,266.021 223.200,267.268 223.200 C 269.221 223.200,269.669 223.645,270.495 226.400 C 271.364 229.304,271.701 229.600,274.127 229.600 C 277.399 229.600,277.406 230.087,273.994 219.065 C 269.089 203.217,269.080 203.200,265.890 203.200 C 262.885 203.200,263.286 202.592,257.458 216.000 C 256.598 217.980,255.179 221.179,254.304 223.109 L 252.715 226.618 249.338 221.509 C 245.966 216.406,245.964 216.399,247.716 215.408 C 255.791 210.844,249.422 201.604,238.200 201.601 L 232.800 201.600 232.650 212.400 M141.281 202.974 C 139.859 203.338,139.796 203.971,140.281 213.007 C 140.567 218.311,140.800 224.035,140.800 225.726 C 140.800 228.706,140.886 228.800,143.600 228.800 L 146.400 228.800 146.400 222.923 C 146.400 219.690,146.166 213.750,145.880 209.723 C 145.333 202.007,145.292 201.948,141.281 202.974 M125.751 207.800 C 124.847 210.330,123.676 213.840,123.148 215.600 C 121.075 222.518,120.963 222.475,116.695 213.129 C 111.965 202.772,112.827 203.720,108.759 204.407 L 105.410 204.973 105.888 210.286 C 106.151 213.209,106.603 219.110,106.892 223.400 L 107.419 231.200 109.798 231.200 L 112.177 231.200 111.877 222.600 L 111.576 214.000 114.212 219.600 C 118.953 229.672,119.438 230.400,121.407 230.400 C 122.421 230.400,123.382 229.950,123.544 229.400 C 128.239 213.392,129.551 211.703,129.600 221.600 C 129.633 228.334,130.172 229.600,133.005 229.600 L 135.424 229.600 134.848 217.498 C 134.155 202.955,134.231 203.200,130.412 203.200 C 127.463 203.200,127.358 203.304,125.751 207.800 M276.258 204.481 C 275.255 207.094,276.394 208.399,279.900 208.651 L 283.386 208.901 282.840 218.251 C 282.541 223.393,282.127 228.189,281.922 228.910 C 281.639 229.905,282.215 230.297,284.325 230.543 C 287.633 230.929,287.969 230.183,287.996 222.400 C 288.006 219.540,288.243 215.296,288.522 212.968 L 289.030 208.737 292.515 209.259 C 295.977 209.778,296.000 209.766,296.000 207.355 C 296.000 204.958,295.938 204.922,291.000 204.486 C 279.219 203.445,276.656 203.445,276.258 204.481 M303.503 206.749 C 294.007 210.882,293.304 226.821,302.416 231.399 C 312.684 236.557,323.192 227.793,321.160 215.765 C 319.873 208.145,310.864 203.545,303.503 206.749 M82.885 206.956 L 78.971 207.297 79.507 215.049 C 79.802 219.312,80.267 225.253,80.541 228.251 L 81.039 233.702 86.320 233.165 C 99.553 231.821,105.540 223.729,100.960 213.376 C 98.520 207.860,93.397 206.040,82.885 206.956 M243.535 206.886 C 245.369 207.590,245.170 211.745,243.253 212.772 C 239.749 214.647,238.400 213.876,238.400 210.000 C 238.400 206.244,239.742 205.430,243.535 206.886 M327.190 208.551 C 327.184 208.908,326.469 213.700,325.600 219.200 C 323.421 232.996,323.465 234.111,326.200 234.636 C 328.942 235.163,328.708 235.481,329.600 230.000 C 330.775 222.780,332.482 222.959,335.940 230.666 C 338.182 235.664,339.391 236.800,342.465 236.800 C 344.535 236.800,344.427 236.121,341.354 229.806 L 338.709 224.370 341.354 221.898 C 345.940 217.614,344.075 211.287,337.757 209.692 C 332.924 208.473,327.201 207.855,327.190 208.551 M59.706 209.751 C 59.552 210.328,58.606 214.400,57.606 218.800 C 56.605 223.200,55.274 228.910,54.648 231.488 C 53.310 237.001,53.253 236.886,57.042 236.271 C 59.714 235.837,60.001 235.550,60.012 233.295 C 60.040 227.686,68.575 226.054,71.180 231.160 C 72.435 233.621,78.400 235.365,78.400 233.272 C 78.400 233.187,75.561 227.737,72.090 221.159 C 65.856 209.343,65.746 209.197,62.884 208.951 C 60.999 208.790,59.889 209.069,59.706 209.751 M266.303 212.200 C 268.359 217.781,268.242 218.400,265.130 218.400 C 262.682 218.400,262.318 218.181,262.801 217.000 C 263.116 216.230,263.711 214.430,264.124 213.000 C 265.012 209.927,265.411 209.780,266.303 212.200 M313.784 212.572 C 316.941 215.417,316.204 224.246,312.599 226.771 C 309.173 229.171,304.569 228.220,302.770 224.743 C 298.356 216.207,307.098 206.547,313.784 212.572 M94.675 213.519 C 99.382 218.227,95.965 227.390,89.451 227.527 L 86.000 227.600 85.283 220.119 C 84.698 214.018,84.772 212.500,85.683 211.887 C 87.423 210.715,92.857 211.702,94.675 213.519 M337.143 214.857 C 338.790 216.504,338.729 217.271,336.800 219.200 C 333.708 222.292,330.730 220.759,331.531 216.488 C 332.138 213.252,334.772 212.486,337.143 214.857 M67.164 223.400 C 67.184 223.730,65.916 224.000,64.346 224.000 C 62.011 224.000,61.564 223.745,61.886 222.600 C 62.103 221.830,62.532 219.956,62.840 218.435 L 63.399 215.671 65.264 219.235 C 66.289 221.196,67.144 223.070,67.164 223.400 M171.000 271.941 C 171.550 271.973,172.000 272.517,172.000 273.150 C 172.000 274.016,171.312 274.188,169.207 273.846 C 163.517 272.923,162.738 276.427,168.096 278.843 C 175.607 282.230,174.143 288.800,165.876 288.800 C 162.149 288.800,161.600 288.597,161.600 287.217 C 161.600 285.819,161.834 285.741,163.600 286.546 C 169.360 289.170,171.324 284.101,165.659 281.230 C 158.424 277.564,160.418 270.608,168.400 271.668 C 169.280 271.785,170.450 271.908,171.000 271.941 M192.062 273.538 C 196.678 278.155,194.523 286.935,188.396 288.473 C 181.216 290.274,175.870 283.601,178.485 276.100 C 180.296 270.904,187.978 269.454,192.062 273.538 M212.800 272.639 C 212.800 273.818,212.284 274.018,209.951 273.746 C 207.783 273.493,206.635 273.852,205.151 275.246 C 200.626 279.498,204.156 287.103,210.200 286.123 C 213.406 285.602,213.912 287.691,210.771 288.479 C 202.718 290.500,196.502 281.351,201.286 274.521 C 203.667 271.120,212.800 269.628,212.800 272.639 M221.135 271.686 C 223.296 272.515,222.981 288.416,220.800 288.580 C 219.290 288.694,219.200 288.207,219.200 279.950 C 219.200 275.138,219.351 271.200,219.535 271.200 C 219.719 271.200,220.439 271.419,221.135 271.686 M153.781 273.400 C 154.087 274.565,153.599 274.800,150.874 274.800 C 145.880 274.800,145.931 277.359,150.978 280.000 C 158.068 283.710,156.132 289.600,147.822 289.600 C 144.549 289.600,144.000 289.373,144.000 288.020 C 144.000 286.665,144.285 286.548,146.000 287.200 C 151.897 289.442,153.709 284.893,148.059 282.030 C 143.983 279.965,142.713 277.996,143.616 275.148 C 144.596 272.062,153.048 270.608,153.781 273.400 M240.356 279.400 C 241.614 283.470,242.807 287.250,243.007 287.800 C 243.221 288.388,242.712 288.800,241.772 288.800 C 240.734 288.800,239.997 288.099,239.671 286.800 C 239.229 285.037,238.743 284.800,235.565 284.800 C 232.456 284.800,231.856 285.075,231.200 286.800 C 230.734 288.024,229.811 288.800,228.820 288.800 C 226.820 288.800,226.712 289.542,229.881 281.555 C 231.355 277.840,232.784 274.170,233.055 273.400 C 234.619 268.971,237.988 271.739,240.356 279.400 M255.300 272.800 C 258.944 272.800,260.000 273.070,260.000 274.000 C 260.000 274.829,259.168 275.200,257.309 275.200 C 254.360 275.200,253.600 277.437,253.600 286.112 C 253.600 289.060,253.354 289.600,252.009 289.600 C 250.501 289.600,250.444 289.224,250.924 282.458 L 251.431 275.316 248.516 274.769 C 246.686 274.426,245.600 273.771,245.600 273.011 C 245.600 272.081,246.181 271.916,248.100 272.300 C 249.475 272.575,252.715 272.800,255.300 272.800 M134.886 280.555 C 136.599 284.820,138.105 288.554,138.233 288.853 C 138.361 289.152,137.729 289.589,136.829 289.824 C 135.588 290.149,135.077 289.787,134.710 288.326 C 133.984 285.433,126.819 285.421,126.094 288.312 C 125.667 290.014,123.452 291.718,122.676 290.942 C 122.513 290.780,123.331 287.441,124.493 283.523 C 125.655 279.606,126.781 275.590,126.996 274.600 C 128.069 269.651,131.568 272.291,134.886 280.555 M275.080 274.053 C 276.107 274.935,273.746 276.066,271.319 275.854 C 268.549 275.613,268.387 275.733,268.149 278.200 C 267.909 280.694,268.015 280.800,270.749 280.800 C 272.750 280.800,273.600 281.158,273.600 282.000 C 273.600 282.870,272.705 283.200,270.347 283.200 C 265.379 283.200,265.902 287.224,271.000 288.226 C 276.479 289.303,275.336 290.967,269.400 290.555 C 266.650 290.364,264.388 290.161,264.373 290.104 C 264.358 290.047,264.481 286.116,264.646 281.369 L 264.947 272.737 269.874 273.275 C 272.583 273.570,274.926 273.920,275.080 274.053 M182.458 275.708 C 180.214 278.561,180.334 282.007,182.764 284.436 C 186.509 288.181,191.200 285.697,191.200 279.969 C 191.200 274.099,185.796 271.465,182.458 275.708 M234.103 277.843 C 232.246 282.703,232.394 283.200,235.693 283.200 C 238.329 283.200,238.536 283.040,238.019 281.400 C 237.706 280.410,237.263 278.606,237.033 277.390 C 236.389 273.982,235.526 274.115,234.103 277.843 M128.121 279.790 C 127.185 284.178,127.214 284.235,130.396 284.329 C 133.204 284.412,133.167 284.562,131.525 279.743 C 129.914 275.014,129.138 275.025,128.121 279.790 M186.009 321.600 L 194.707 322.000 187.841 326.984 L 180.975 331.968 183.204 338.984 C 184.431 342.843,185.702 346.662,186.030 347.472 C 186.381 348.338,183.631 346.754,179.351 343.624 L 172.075 338.304 165.490 343.137 C 157.550 348.965,157.827 349.149,160.827 340.049 C 163.643 331.503,163.957 332.323,155.559 326.321 L 149.513 322.000 158.195 321.775 L 166.876 321.551 169.538 313.429 L 172.200 305.308 174.756 313.254 L 177.312 321.200 186.009 321.600 M230.510 313.575 L 233.124 321.551 241.829 321.775 L 250.533 322.000 243.676 326.800 C 239.904 329.440,236.814 331.853,236.809 332.163 C 236.804 332.473,237.876 336.047,239.192 340.105 C 242.131 349.172,242.424 348.982,234.483 343.165 L 227.892 338.337 222.546 342.092 C 219.606 344.157,216.332 346.601,215.272 347.523 C 213.397 349.154,213.361 349.156,213.955 347.600 C 214.291 346.720,215.570 342.840,216.797 338.978 L 219.029 331.957 211.828 326.805 L 204.627 321.654 213.631 321.427 L 222.636 321.200 225.118 313.407 C 228.098 304.048,227.380 304.026,230.510 313.575 "></path>
    </g>
</svg>