<svg id="svg" version="1.1" xmlns="http://www.w3.org/2000/svg" xmlns:xlink="http://www.w3.org/1999/xlink" width="400"
    height="400" viewBox="0, 0, 400,400">
    <defs>
        <linearGradient id="grad1" x1="0%" y1="0%" x2="100%" y2="0%">
        <stop offset="0%" stop-color="#FFDB6E" />
        <stop offset="100%" stop-color="#FFBC5E" />
        </linearGradient>
    </defs>
    <g id="svgg" fill="url(#grad1)" stroke="none">
        <path id="path0"
            d="M192.400 3.985 C 190.640 4.306,186.140 5.488,182.400 6.611 C 166.836 11.285,133.025 21.556,130.800 22.285 C 129.480 22.718,124.440 24.219,119.600 25.621 C 111.736 27.898,97.214 32.288,82.400 36.866 C 72.612 39.891,65.161 46.652,61.416 55.911 C 59.622 60.345,59.597 60.891,59.389 100.800 L 59.178 141.200 52.589 142.215 C 23.203 146.744,20.017 147.722,14.803 153.814 C 10.328 159.042,8.879 165.204,10.401 172.539 C 11.240 176.580,14.447 193.377,18.012 212.400 C 19.167 218.560,20.959 227.920,21.994 233.200 C 23.029 238.480,24.127 244.420,24.434 246.400 C 27.054 263.328,36.592 269.119,56.600 265.931 L 60.000 265.389 60.000 270.176 C 60.000 313.947,115.176 365.468,192.620 394.011 L 200.039 396.745 206.620 394.338 C 281.965 366.779,336.714 316.523,339.776 272.111 L 340.237 265.421 343.518 265.947 C 364.428 269.298,372.356 263.996,375.921 244.279 C 376.784 239.505,378.226 231.820,379.125 227.200 C 380.025 222.580,382.567 209.260,384.776 197.600 C 386.984 185.940,389.153 174.663,389.596 172.539 C 391.179 164.940,389.820 159.215,385.136 153.742 C 379.989 147.728,376.765 146.743,347.418 142.215 L 340.837 141.200 340.609 100.800 C 340.335 52.097,339.849 49.987,326.933 41.333 C 322.251 38.197,321.194 37.807,300.800 31.685 C 292.660 29.241,281.680 25.929,276.400 24.325 C 271.120 22.720,265.000 20.872,262.800 20.218 C 260.600 19.564,251.060 16.691,241.600 13.833 C 213.438 5.327,210.959 4.614,207.200 3.940 C 202.882 3.167,196.779 3.185,192.400 3.985 M216.800 22.380 C 221.420 23.800,230.240 26.517,236.400 28.417 C 242.560 30.317,248.860 32.216,250.400 32.637 C 252.865 33.310,272.063 39.096,296.400 46.499 C 327.233 55.878,324.789 51.119,324.796 101.800 C 324.798 122.370,324.634 139.200,324.431 139.200 C 324.227 139.200,318.557 138.503,311.831 137.650 C 305.104 136.798,294.200 135.711,287.600 135.235 C 281.000 134.758,271.820 134.028,267.200 133.611 C 237.051 130.889,163.418 130.881,132.800 133.597 C 128.180 134.007,117.448 134.899,108.951 135.579 C 100.454 136.260,89.681 137.353,85.012 138.008 C 80.342 138.664,76.224 139.200,75.861 139.200 C 74.909 139.200,75.037 65.021,75.995 61.572 C 77.947 54.545,80.547 53.312,115.200 42.976 C 131.878 38.002,153.305 31.544,163.600 28.389 C 169.760 26.501,178.760 23.810,183.600 22.410 C 188.440 21.010,192.760 19.723,193.200 19.550 C 196.023 18.440,209.077 20.005,216.800 22.380 M161.371 59.695 C 159.269 61.798,162.552 65.367,165.677 64.376 C 168.423 63.504,167.423 59.661,164.371 59.362 C 163.035 59.231,161.685 59.381,161.371 59.695 M247.863 60.029 C 247.127 60.458,246.288 61.887,245.999 63.205 C 245.710 64.522,244.961 65.600,244.336 65.600 C 243.658 65.600,243.200 66.405,243.200 67.600 C 243.200 68.844,243.653 69.600,244.400 69.600 C 245.360 69.600,245.600 70.800,245.600 75.600 L 245.600 81.600 248.863 81.600 L 252.126 81.600 251.863 75.598 L 251.600 69.596 254.600 69.598 L 257.600 69.600 257.600 74.276 C 257.600 79.834,259.013 81.600,263.463 81.600 C 266.202 81.600,266.400 81.436,266.400 79.165 C 266.400 77.290,266.078 76.784,265.000 76.965 C 263.857 77.157,263.555 76.504,263.356 73.400 C 263.139 70.020,263.294 69.600,264.756 69.600 C 265.976 69.600,266.400 69.084,266.400 67.600 C 266.400 66.133,265.973 65.600,264.800 65.600 C 263.556 65.600,263.200 65.067,263.200 63.200 C 263.200 60.595,262.765 60.397,259.652 61.580 C 258.382 62.063,257.600 62.978,257.600 63.980 C 257.600 65.334,257.080 65.600,254.425 65.600 C 251.938 65.600,251.350 65.341,251.709 64.406 C 252.019 63.597,252.786 63.367,254.083 63.692 C 256.108 64.200,256.270 63.890,255.496 61.000 C 254.968 59.031,250.539 58.467,247.863 60.029 M133.600 70.800 L 133.600 81.600 136.400 81.600 L 139.200 81.600 139.230 75.800 L 139.260 70.000 141.230 75.538 C 142.313 78.584,143.200 81.194,143.200 81.338 C 143.200 82.003,147.963 81.507,148.402 80.796 C 148.675 80.354,149.760 77.564,150.812 74.596 L 152.725 69.200 152.613 75.200 L 152.501 81.200 155.451 81.448 L 158.400 81.697 158.400 70.848 L 158.400 60.000 154.426 60.000 L 150.451 60.000 148.313 67.000 L 146.174 74.000 143.898 67.200 C 142.647 63.460,141.618 60.310,141.612 60.200 C 141.605 60.090,139.800 60.000,137.600 60.000 L 133.600 60.000 133.600 70.800 M161.600 73.600 L 161.600 81.600 164.400 81.600 L 167.200 81.600 167.200 73.600 L 167.200 65.600 164.400 65.600 L 161.600 65.600 161.600 73.600 M172.135 67.609 C 165.578 73.126,169.488 82.005,178.227 81.443 C 181.840 81.210,182.011 81.090,182.251 78.600 C 182.532 75.682,182.466 75.640,179.661 76.918 C 177.054 78.106,175.200 76.698,175.200 73.530 C 175.200 70.733,177.618 69.125,179.947 70.372 C 182.277 71.618,182.523 71.428,182.251 68.600 C 181.896 64.920,176.015 64.344,172.135 67.609 M184.000 73.597 L 184.000 81.600 186.800 81.600 L 189.600 81.600 189.600 76.898 C 189.600 71.915,190.672 70.096,193.341 70.551 C 194.484 70.746,194.800 70.280,194.800 68.400 L 194.800 66.000 189.400 65.797 L 184.000 65.594 184.000 73.597 M197.538 67.938 C 189.923 75.554,201.255 86.499,209.539 79.529 C 211.661 77.743,212.000 76.926,212.000 73.600 C 212.000 66.104,202.925 62.552,197.538 67.938 M214.956 67.221 C 211.433 69.992,213.590 76.000,218.108 76.000 C 218.709 76.000,219.200 76.399,219.200 76.887 C 219.200 77.735,217.162 77.503,214.016 76.295 C 212.907 75.870,212.726 76.239,212.941 78.492 L 213.200 81.200 217.968 81.200 C 222.497 81.200,222.828 81.064,224.568 78.482 C 225.618 76.923,226.400 76.301,226.400 77.024 C 226.400 80.567,234.385 82.942,238.653 80.669 C 243.985 77.829,244.287 69.431,239.153 66.776 C 233.020 63.604,225.600 67.341,225.600 73.601 C 225.600 74.984,225.415 74.943,223.636 73.164 C 222.556 72.084,221.116 71.200,220.436 71.200 C 219.756 71.200,219.200 70.824,219.200 70.364 C 219.200 69.838,220.262 69.727,222.063 70.065 C 224.846 70.587,224.918 70.538,224.663 68.301 C 224.306 65.178,218.390 64.519,214.956 67.221 M205.440 70.560 C 206.807 71.927,206.627 75.615,205.133 76.856 C 202.241 79.256,199.291 73.623,202.014 70.901 C 203.567 69.348,204.168 69.288,205.440 70.560 M235.535 70.086 C 237.232 70.737,237.285 76.443,235.600 77.089 C 233.278 77.980,232.000 76.735,232.000 73.581 C 232.000 71.891,232.446 70.354,233.000 70.130 C 233.550 69.908,234.061 69.698,234.135 69.663 C 234.209 69.628,234.839 69.819,235.535 70.086 M137.936 95.108 C 129.617 100.181,135.235 113.885,144.231 110.464 C 147.860 109.084,146.993 107.330,142.910 107.790 C 139.915 108.127,139.233 107.918,138.110 106.314 C 134.834 101.637,137.533 96.404,142.910 97.010 C 145.864 97.343,146.400 97.186,146.400 95.987 C 146.400 93.268,141.746 92.785,137.936 95.108 M152.800 102.400 L 152.800 110.400 157.600 110.400 C 161.333 110.400,162.400 110.133,162.400 109.200 C 162.400 108.333,161.511 108.000,159.200 108.000 C 156.320 108.000,156.000 107.800,156.000 106.000 C 156.000 104.311,156.373 104.000,158.400 104.000 C 160.267 104.000,160.800 103.644,160.800 102.400 C 160.800 101.156,160.267 100.800,158.400 100.800 C 156.373 100.800,156.000 100.489,156.000 98.800 C 156.000 97.048,156.347 96.800,158.800 96.800 C 160.756 96.800,161.600 96.438,161.600 95.600 C 161.600 94.679,160.578 94.400,157.200 94.400 L 152.800 94.400 152.800 102.400 M168.800 102.400 C 168.800 109.867,168.907 110.400,170.400 110.400 C 171.739 110.400,172.000 109.867,172.000 107.133 C 172.000 103.160,173.180 103.256,175.934 107.453 C 176.998 109.074,178.528 110.400,179.334 110.400 C 181.281 110.400,181.188 109.742,178.730 106.126 C 176.827 103.324,176.762 102.968,177.930 101.677 C 181.185 98.081,178.561 94.400,172.743 94.400 L 168.800 94.400 168.800 102.400 M184.000 95.600 C 184.000 96.347,184.756 96.800,186.000 96.800 C 187.976 96.800,188.000 96.880,188.000 103.600 C 188.000 109.867,188.125 110.400,189.600 110.400 C 191.075 110.400,191.200 109.867,191.200 103.600 L 191.200 96.800 193.600 96.800 C 195.200 96.800,196.000 96.400,196.000 95.600 C 196.000 94.640,194.800 94.400,190.000 94.400 C 185.200 94.400,184.000 94.640,184.000 95.600 M201.600 102.400 C 201.600 108.978,201.813 110.400,202.800 110.400 C 203.787 110.400,204.000 108.978,204.000 102.400 C 204.000 95.822,203.787 94.400,202.800 94.400 C 201.813 94.400,201.600 95.822,201.600 102.400 M211.200 102.360 C 211.200 109.867,211.306 110.400,212.800 110.400 C 214.133 110.400,214.400 109.867,214.400 107.200 C 214.400 104.076,214.467 104.000,217.200 104.000 C 219.467 104.000,220.000 103.695,220.000 102.400 C 220.000 101.105,219.467 100.800,217.200 100.800 C 212.846 100.800,213.028 97.010,217.400 96.648 C 221.890 96.277,220.654 94.835,215.609 94.560 L 211.200 94.320 211.200 102.360 M227.200 102.400 C 227.200 108.978,227.413 110.400,228.400 110.400 C 229.387 110.400,229.600 108.978,229.600 102.400 C 229.600 95.822,229.387 94.400,228.400 94.400 C 227.413 94.400,227.200 95.822,227.200 102.400 M236.800 102.400 L 236.800 110.400 241.600 110.400 C 245.333 110.400,246.400 110.133,246.400 109.200 C 246.400 108.333,245.511 108.000,243.200 108.000 C 240.320 108.000,240.000 107.800,240.000 106.000 C 240.000 104.311,240.373 104.000,242.400 104.000 C 244.267 104.000,244.800 103.644,244.800 102.400 C 244.800 101.156,244.267 100.800,242.400 100.800 C 240.373 100.800,240.000 100.489,240.000 98.800 C 240.000 97.048,240.347 96.800,242.800 96.800 C 244.756 96.800,245.600 96.438,245.600 95.600 C 245.600 94.679,244.578 94.400,241.200 94.400 L 236.800 94.400 236.800 102.400 M252.000 102.400 L 252.000 110.400 256.200 110.382 C 263.854 110.350,267.821 104.216,264.430 97.657 C 262.986 94.865,261.831 94.400,256.335 94.400 L 252.000 94.400 252.000 102.400 M175.856 99.000 C 176.064 100.466,175.730 100.800,174.056 100.800 C 172.381 100.800,172.000 100.419,172.000 98.744 C 172.000 96.009,175.463 96.238,175.856 99.000 M260.937 98.124 C 264.176 101.055,262.290 106.807,257.800 107.689 L 255.200 108.200 255.200 102.500 C 255.200 96.282,257.209 94.750,260.937 98.124 M259.600 142.315 C 264.880 142.777,274.600 143.548,281.200 144.028 C 315.396 146.515,370.457 154.232,374.782 157.144 C 381.721 161.814,381.946 163.664,378.003 183.600 C 376.156 192.935,373.138 208.770,369.158 230.000 C 363.946 257.810,362.313 259.951,348.336 257.321 C 333.785 254.582,292.458 249.384,274.400 248.021 C 243.260 245.670,231.071 245.210,200.000 245.210 C 168.929 245.210,156.740 245.670,125.600 248.021 C 107.542 249.384,66.215 254.582,51.664 257.321 C 37.687 259.951,36.054 257.810,30.842 230.000 C 26.697 207.887,23.822 192.825,21.985 183.600 C 16.576 156.433,16.250 156.728,58.176 150.855 C 92.459 146.052,111.945 144.189,158.000 141.312 C 167.895 140.694,250.381 141.508,259.600 142.315 M183.200 169.640 C 183.200 180.532,182.182 183.200,178.025 183.200 C 173.622 183.200,172.800 181.220,172.800 170.622 L 172.800 161.600 170.000 161.600 L 167.200 161.600 167.200 170.826 C 167.200 184.684,169.370 188.000,178.440 188.000 C 182.059 188.000,182.891 187.669,185.280 185.280 L 188.000 182.560 188.000 171.680 L 188.000 160.800 185.600 160.800 L 183.200 160.800 183.200 169.640 M193.600 174.000 L 193.600 187.200 196.400 187.200 L 199.200 187.200 199.200 182.000 C 199.200 174.512,201.502 174.917,206.168 183.224 C 208.225 186.886,208.636 187.198,211.400 187.199 C 215.114 187.200,215.131 187.411,210.881 180.841 L 207.362 175.401 209.262 173.501 C 215.368 167.391,210.603 160.800,200.080 160.800 L 193.600 160.800 193.600 174.000 M146.121 162.188 C 143.404 162.469,143.096 162.712,143.510 164.253 C 143.767 165.214,143.983 166.301,143.989 166.668 C 143.995 167.036,146.726 167.081,150.058 166.769 L 156.116 166.201 152.520 171.701 C 141.189 189.027,141.124 189.328,148.935 188.512 C 151.630 188.230,156.122 188.000,158.917 188.000 L 164.000 188.000 164.000 185.632 L 164.000 183.265 157.593 183.032 L 151.187 182.800 157.193 173.816 C 165.729 161.048,164.958 160.239,146.121 162.188 M216.750 170.600 C 216.722 175.550,216.632 181.400,216.550 183.600 L 216.400 187.600 224.256 187.830 L 232.112 188.059 231.856 185.830 C 231.609 183.681,231.416 183.591,226.517 183.360 C 221.719 183.133,221.461 183.021,221.906 181.360 C 222.166 180.392,222.383 178.970,222.389 178.200 C 222.398 177.038,223.147 176.800,226.800 176.800 C 231.313 176.800,231.876 176.292,230.714 173.265 C 230.363 172.350,229.146 172.000,226.314 172.000 L 222.400 172.000 222.400 169.200 L 222.400 166.400 227.200 166.400 L 232.000 166.400 232.000 164.000 L 232.000 161.600 224.400 161.600 L 216.800 161.600 216.750 170.600 M253.768 163.442 C 253.297 164.409,252.009 167.360,250.905 170.000 C 249.801 172.640,247.796 177.380,246.449 180.534 C 243.391 187.694,243.401 188.000,246.679 188.000 C 249.040 188.000,249.532 187.612,250.836 184.721 C 252.246 181.593,252.446 181.463,255.157 181.912 C 256.721 182.171,258.616 182.386,259.368 182.391 C 260.267 182.397,261.064 183.496,261.695 185.600 C 262.592 188.595,262.846 188.800,265.657 188.800 C 268.401 188.800,268.614 188.644,268.116 187.000 C 266.113 180.396,260.651 164.247,260.176 163.526 C 258.924 161.626,254.681 161.571,253.768 163.442 M122.803 172.600 C 121.215 177.770,119.395 183.594,118.758 185.543 C 118.121 187.491,117.600 189.223,117.600 189.391 C 117.600 191.669,123.651 188.767,124.254 186.200 C 124.934 183.305,125.080 183.200,128.414 183.200 C 130.314 183.200,132.391 183.000,133.030 182.755 C 133.828 182.448,134.596 183.323,135.489 185.555 C 136.661 188.485,137.060 188.800,139.594 188.800 C 143.091 188.800,143.332 190.074,137.091 175.553 L 131.782 163.200 128.735 163.200 L 125.689 163.200 122.803 172.600 M271.995 169.800 C 271.993 173.430,271.759 179.370,271.477 183.000 L 270.963 189.600 273.769 189.600 L 276.574 189.600 277.120 179.000 C 277.420 173.170,277.871 167.230,278.122 165.800 C 278.576 163.214,278.560 163.200,275.289 163.200 L 272.000 163.200 271.995 169.800 M205.200 168.800 C 205.200 171.458,205.048 171.613,202.200 171.848 L 199.200 172.097 199.200 168.800 L 199.200 165.503 202.200 165.752 C 205.048 165.987,205.200 166.142,205.200 168.800 M257.613 171.635 C 259.705 177.137,259.613 177.600,256.420 177.600 C 254.370 177.600,253.593 177.294,253.881 176.600 C 254.109 176.050,254.736 174.250,255.275 172.600 C 256.434 169.046,256.603 168.976,257.613 171.635 M131.051 174.600 L 132.710 178.400 129.630 178.400 L 126.550 178.400 127.371 175.400 C 129.081 169.149,128.707 169.230,131.051 174.600 M162.250 204.548 C 161.312 206.666,160.272 209.480,159.940 210.800 C 159.607 212.120,158.225 216.378,156.868 220.262 C 155.510 224.147,154.400 227.477,154.400 227.662 C 154.400 230.155,160.017 227.548,160.997 224.600 L 162.126 221.200 166.620 220.961 L 171.113 220.723 172.083 223.961 C 172.617 225.743,173.266 227.239,173.527 227.288 C 175.708 227.692,179.200 227.720,179.200 227.333 C 179.200 226.893,173.949 213.445,170.403 204.800 C 168.136 199.274,164.634 199.165,162.250 204.548 M181.600 214.000 L 181.600 227.200 184.372 227.200 L 187.144 227.200 187.372 219.171 L 187.600 211.143 190.768 219.208 C 195.491 231.233,197.847 229.987,203.639 212.400 C 204.642 209.354,204.696 209.633,204.746 218.200 L 204.800 227.200 207.600 227.200 L 210.400 227.200 210.400 214.000 L 210.400 200.800 206.928 200.800 C 203.015 200.800,203.321 200.388,199.112 211.303 C 196.113 219.081,195.887 219.081,192.888 211.303 C 188.679 200.388,188.985 200.800,185.072 200.800 L 181.600 200.800 181.600 214.000 M216.000 214.000 L 216.000 227.200 221.100 227.200 C 223.905 227.200,227.325 227.425,228.700 227.700 C 231.073 228.175,231.200 228.073,231.200 225.700 L 231.200 223.200 225.900 223.200 L 220.600 223.200 221.100 220.700 C 221.375 219.325,221.600 217.904,221.600 217.542 C 221.600 217.180,223.490 216.775,225.800 216.642 C 232.543 216.254,232.775 212.000,226.053 212.000 L 221.600 212.000 221.600 208.800 L 221.600 205.600 226.400 205.600 L 231.200 205.600 231.200 203.200 L 231.200 200.800 223.600 200.800 L 216.000 200.800 216.000 214.000 M235.726 210.600 C 235.441 215.550,235.206 221.513,235.204 223.851 L 235.200 228.101 237.800 227.851 L 240.400 227.600 240.800 218.976 L 241.200 210.352 246.773 219.576 C 251.982 228.197,252.510 228.800,254.856 228.800 L 257.365 228.800 257.883 222.679 C 258.167 219.313,258.400 213.373,258.400 209.479 L 258.400 202.400 256.093 202.400 C 253.200 202.400,252.827 203.628,252.807 213.200 L 252.792 220.400 248.789 213.600 C 246.587 209.860,244.183 205.630,243.445 204.200 C 242.302 201.984,241.671 201.600,239.174 201.600 L 236.244 201.600 235.726 210.600 M131.299 203.122 C 130.399 203.692,130.305 206.102,130.783 216.310 L 131.368 228.800 136.715 228.800 C 147.368 228.800,152.400 224.307,152.400 214.794 C 152.400 208.017,150.237 204.697,144.845 203.199 C 141.337 202.225,132.792 202.176,131.299 203.122 M262.127 203.557 C 260.967 206.582,261.491 207.200,265.220 207.200 L 268.841 207.200 268.296 218.060 L 267.751 228.920 270.475 228.660 C 272.512 228.466,273.240 227.996,273.360 226.800 C 273.448 225.920,273.752 221.330,274.037 216.600 L 274.554 208.000 278.077 208.000 C 281.458 208.000,281.600 207.903,281.600 205.600 C 281.600 203.361,281.399 203.200,278.600 203.195 C 276.950 203.193,272.687 202.964,269.127 202.686 C 263.463 202.245,262.589 202.354,262.127 203.557 M119.394 212.067 C 119.625 216.944,119.545 220.634,119.217 220.267 C 118.889 219.900,115.997 216.076,112.790 211.769 C 107.350 204.463,106.793 203.958,104.479 204.230 C 101.614 204.567,101.492 205.853,102.725 222.645 L 103.360 231.289 105.813 231.045 L 108.267 230.800 108.103 224.400 C 108.013 220.880,107.726 216.740,107.464 215.200 C 107.202 213.660,107.170 212.580,107.392 212.800 C 107.614 213.020,110.550 216.890,113.916 221.400 C 119.683 229.126,120.202 229.600,122.893 229.600 L 125.749 229.600 125.250 221.800 C 124.025 202.670,124.135 203.200,121.406 203.200 L 118.973 203.200 119.394 212.067 M288.582 206.936 C 287.060 210.688,280.262 225.432,279.098 227.507 C 278.126 229.240,279.292 230.367,282.079 230.388 C 283.275 230.396,284.182 229.459,285.236 227.121 C 286.646 223.993,286.846 223.863,289.557 224.312 C 291.121 224.571,293.164 224.786,294.098 224.791 C 295.449 224.798,295.897 225.434,296.293 227.910 C 296.742 230.717,297.072 231.073,299.677 231.562 C 303.974 232.368,304.123 233.920,297.983 213.952 C 296.892 210.406,296.000 206.896,296.000 206.152 C 296.000 205.402,295.377 204.795,294.600 204.789 C 293.830 204.783,292.441 204.574,291.512 204.325 C 290.132 203.955,289.598 204.430,288.582 206.936 M307.601 212.634 C 307.302 216.905,306.745 222.737,306.362 225.593 C 305.511 231.942,305.247 231.701,313.800 232.384 L 320.800 232.944 320.800 230.583 C 320.800 228.339,320.598 228.199,316.692 227.736 C 311.353 227.104,311.647 227.941,312.657 216.257 C 313.141 210.655,313.462 206.017,313.369 205.950 C 313.276 205.884,312.062 205.614,310.672 205.349 L 308.144 204.869 307.601 212.634 M90.970 206.200 C 90.792 206.530,90.978 210.536,91.384 215.103 C 92.256 224.913,91.892 226.996,89.188 227.675 C 83.535 229.093,82.009 226.656,81.140 214.824 L 80.581 207.200 77.890 207.200 C 74.769 207.200,74.846 206.732,76.008 218.685 C 77.203 230.972,79.351 233.384,88.425 232.631 C 96.194 231.987,98.002 228.391,96.788 216.000 C 96.378 211.820,96.034 207.770,96.022 207.000 C 96.000 205.573,91.678 204.889,90.970 206.200 M62.808 208.346 C 55.065 209.380,55.391 208.409,57.621 223.755 C 59.616 237.490,59.090 236.105,62.010 235.324 C 64.455 234.670,64.519 234.324,63.748 226.000 C 63.623 224.647,64.156 224.361,67.200 224.149 C 71.455 223.853,72.353 223.173,71.603 220.811 C 71.108 219.250,70.587 219.090,66.787 219.330 L 62.526 219.600 62.187 216.800 C 61.799 213.599,62.561 212.830,66.135 212.812 C 70.920 212.789,72.372 211.320,70.200 208.699 C 69.349 207.672,68.249 207.619,62.808 208.346 M143.943 208.370 C 150.608 211.817,147.648 222.895,139.827 223.777 L 136.107 224.196 135.853 215.696 L 135.600 207.197 138.640 207.198 C 140.312 207.199,142.698 207.727,143.943 208.370 M168.215 214.631 C 168.366 216.077,167.942 216.445,165.892 216.644 L 163.384 216.888 164.692 212.415 L 166.000 207.942 167.015 210.402 C 167.573 211.755,168.113 213.658,168.215 214.631 M328.221 209.578 C 322.912 212.815,323.807 217.853,330.607 223.022 C 335.288 226.580,335.943 227.737,334.240 229.440 C 332.846 230.834,330.372 230.621,326.800 228.800 C 325.074 227.920,323.558 227.200,323.431 227.200 C 322.030 227.200,323.529 232.693,325.129 233.422 C 338.361 239.451,346.808 227.482,334.883 219.600 C 327.724 214.868,331.508 210.022,339.240 214.021 L 341.600 215.241 341.600 212.401 C 341.600 207.898,333.708 206.233,328.221 209.578 M293.216 216.321 L 294.323 220.000 291.562 220.000 C 288.369 220.000,288.344 219.918,290.187 215.462 C 291.806 211.548,291.777 211.540,293.216 216.321 M203.200 298.215 L 206.000 306.800 215.090 307.200 L 224.180 307.600 217.534 312.400 C 213.879 315.040,210.584 317.410,210.212 317.667 C 209.840 317.924,210.803 322.042,212.351 326.817 C 215.773 337.374,216.163 337.044,207.668 330.783 C 199.173 324.522,200.680 324.527,192.212 330.737 C 183.775 336.924,184.243 337.325,187.649 326.817 C 189.197 322.042,190.147 317.924,189.759 317.667 C 189.371 317.410,186.069 315.040,182.421 312.400 L 175.789 307.600 184.895 307.200 L 194.000 306.800 196.800 298.215 C 198.340 293.493,199.780 289.630,200.000 289.630 C 200.220 289.630,201.660 293.493,203.200 298.215 "></path>
    </g>
</svg>