<?xml version="1.0" standalone="no"?>
<!DOCTYPE svg PUBLIC "-//W3C//DTD SVG 20010904//EN"
 "http://www.w3.org/TR/2001/REC-SVG-20010904/DTD/svg10.dtd">
<svg version="1.0" xmlns="http://www.w3.org/2000/svg"
 width="800.000000pt" height="796.000000pt" viewBox="0 0 800.000000 796.000000"
 preserveAspectRatio="xMidYMid meet">

<defs>
        <linearGradient id="grad1" x1="0%" y1="0%" x2="100%" y2="0%">
        <stop offset="0%" stop-color="#FFDB6E" />
        <stop offset="100%" stop-color="#FFBC5E" />
        </linearGradient>
    </defs>

<g transform="translate(0.000000,796.000000) scale(0.100000,-0.100000)"
fill="url(#grad1)" stroke="none">
<path d="M3838 7799 c-72 -7 -205 -43 -518 -139 -170 -52 -698 -211 -1015
-307 -82 -25 -229 -69 -325 -98 -96 -29 -228 -69 -293 -89 -154 -46 -246 -96
-322 -171 -66 -65 -111 -138 -147 -237 l-23 -63 -5 -795 -5 -795 -55 -9 c-30
-4 -184 -30 -341 -56 -247 -42 -294 -52 -349 -80 -131 -66 -221 -194 -228
-323 -4 -71 -2 -83 119 -702 27 -137 51 -268 54 -290 3 -22 28 -155 56 -295
27 -140 56 -291 64 -335 30 -160 103 -263 231 -326 88 -43 177 -49 333 -20 63
11 116 20 117 18 1 -1 7 -56 14 -122 38 -416 238 -814 595 -1184 430 -445
1072 -848 1855 -1163 260 -105 273 -108 340 -87 196 60 681 281 976 444 895
496 1453 1069 1639 1679 37 123 65 276 65 355 0 82 -4 80 118 60 59 -10 137
-18 173 -19 148 -1 285 84 354 219 25 50 46 147 144 661 28 146 75 396 106
555 30 160 62 328 71 374 38 201 4 326 -116 434 -93 84 -123 93 -499 155
l-340 56 -4 780 c-4 867 0 817 -73 964 -24 50 -58 95 -107 145 -106 106 -126
115 -597 257 -236 71 -466 140 -695 210 -88 27 -245 74 -350 106 -104 31 -260
78 -345 104 -314 97 -407 121 -495 130 -50 5 -92 9 -95 8 -3 0 -40 -4 -82 -9z
m1380 -1026 l3 -43 -39 0 c-42 0 -52 -11 -52 -56 0 -21 5 -24 35 -24 35 0 35
0 35 -45 0 -45 0 -45 -35 -45 l-35 0 0 -130 0 -130 -55 0 -55 0 0 130 0 130
-30 0 c-29 0 -30 2 -30 45 0 43 1 45 30 45 29 0 30 2 30 43 0 78 60 129 145
125 l50 -3 3 -42z m-2077 27 c13 -7 19 -21 19 -45 0 -24 -6 -38 -19 -45 -48
-25 -101 -1 -101 45 0 46 53 70 101 45z m-533 -170 c30 -85 56 -162 59 -170 3
-8 31 62 62 155 l58 170 79 0 79 0 0 -245 0 -245 -52 -3 -53 -3 -2 183 -3 183
-60 -178 -60 -178 -49 3 c-56 3 -41 -24 -127 223 l-49 140 0 -188 0 -188 -47
3 -48 3 -3 235 c-1 129 0 240 3 248 3 9 25 12 82 10 l78 -3 53 -155z m2792 70
l0 -50 41 0 40 0 -3 -42 c-3 -42 -4 -43 -40 -46 l-38 -3 0 -77 c0 -42 4 -83 9
-91 5 -8 23 -14 40 -13 29 1 31 -1 31 -38 0 -44 -10 -50 -76 -50 -90 0 -114
38 -114 179 l0 90 -27 3 c-25 3 -28 7 -28 43 0 36 3 40 28 43 23 3 27 8 27 37
0 32 3 35 48 49 26 8 50 15 55 15 4 1 7 -21 7 -49z m-1907 -56 c13 -4 17 -16
17 -50 0 -48 -2 -49 -48 -33 -77 27 -147 -42 -123 -122 7 -21 21 -44 32 -50
19 -10 81 -9 119 2 11 3 16 -6 18 -39 3 -38 0 -43 -23 -52 -47 -18 -136 -12
-180 13 -72 40 -106 148 -71 230 15 38 76 95 109 101 12 3 31 7 42 10 20 4 75
-1 108 -10z m591 1 c32 -7 83 -50 102 -88 21 -39 21 -135 0 -175 -35 -68 -129
-108 -215 -92 -156 29 -200 236 -71 332 14 10 45 22 70 27 43 8 59 7 114 -4z
m754 -13 c55 -25 86 -75 90 -148 4 -54 1 -70 -21 -106 -73 -125 -275 -122
-336 5 -24 50 -27 113 -7 160 15 38 76 95 109 101 12 3 31 7 42 9 29 7 85 -3
123 -21z m-1678 -157 l0 -175 -60 0 -60 0 0 168 c0 93 3 172 7 175 3 4 30 7
60 7 l53 0 0 -175z m520 149 l0 -26 31 26 c18 15 43 26 60 26 28 0 29 -1 29
-51 0 -51 0 -51 -29 -46 -62 13 -91 -42 -91 -175 l0 -78 -55 0 -55 0 0 168 c0
93 3 172 7 175 3 4 28 7 55 7 45 0 48 -2 48 -26z m801 16 c13 -7 19 -21 19
-44 l0 -33 -71 5 c-69 5 -71 4 -67 -18 2 -17 16 -27 54 -41 68 -26 99 -59 99
-109 0 -45 -24 -76 -74 -97 -36 -15 -111 -19 -160 -8 -29 6 -31 9 -31 51 0 43
1 45 23 37 12 -4 47 -8 77 -8 42 0 55 4 58 16 2 12 -15 24 -60 42 -73 29 -102
62 -101 112 2 67 57 105 151 105 35 0 72 -5 83 -10z m-1837 -650 c15 -5 26
-17 26 -28 0 -18 -6 -19 -69 -14 -67 4 -69 4 -107 -30 -34 -32 -38 -41 -42
-95 -9 -121 55 -174 181 -150 33 7 37 6 37 -13 0 -28 -42 -43 -113 -38 -69 5
-103 27 -134 88 -27 52 -30 124 -9 175 37 88 146 137 230 105z m386 -20 c0
-18 -7 -20 -70 -20 l-70 0 0 -60 0 -60 65 0 c58 0 65 -2 65 -20 0 -18 -7 -20
-65 -20 l-65 0 0 -60 0 -60 75 0 c68 0 75 -2 75 -20 0 -19 -7 -20 -100 -20
l-100 0 0 180 0 180 95 0 c88 0 95 -1 95 -20z m370 -6 c12 -12 24 -40 27 -62
5 -37 2 -45 -28 -75 l-34 -33 37 -55 c20 -30 44 -66 53 -81 16 -28 16 -28 -12
-28 -25 0 -34 9 -67 65 -40 68 -59 85 -98 85 -22 0 -23 -2 -20 -75 4 -75 4
-75 -22 -75 l-26 0 0 181 0 181 85 -3 c70 -3 88 -8 105 -25z m415 6 c0 -11
-14 -16 -52 -18 l-53 -3 0 -160 0 -160 -22 3 c-23 3 -23 6 -25 158 l-2 155
-51 3 c-42 3 -50 6 -50 23 0 19 6 19 128 17 105 -3 127 -6 127 -18z m205 -160
l0 -180 -25 0 -25 0 0 180 0 180 25 0 25 0 0 -180z m380 160 c0 -18 -7 -20
-70 -20 l-70 0 0 -60 0 -60 65 0 c58 0 65 -2 65 -20 0 -18 -7 -20 -65 -20
l-65 0 0 -80 c0 -79 0 -80 -25 -80 l-25 0 0 180 0 180 95 0 c88 0 95 -1 95
-20z m210 -160 c0 -173 -1 -180 -20 -180 -19 0 -20 7 -20 180 0 173 1 180 20
180 19 0 20 -7 20 -180z m380 160 c0 -18 -7 -20 -70 -20 l-70 0 0 -60 0 -60
65 0 c58 0 65 -2 65 -20 0 -18 -7 -20 -65 -20 l-65 0 0 -60 0 -60 75 0 c68 0
75 -2 75 -20 0 -19 -7 -20 -95 -20 l-95 0 0 180 0 180 90 0 c83 0 90 -1 90
-20z m400 -6 c51 -30 73 -75 73 -149 0 -52 -4 -71 -26 -104 -40 -60 -89 -81
-187 -81 l-80 0 0 181 0 181 93 -4 c69 -3 102 -9 127 -24z m-600 -844 c748
-36 1548 -118 2255 -231 295 -47 345 -65 409 -149 59 -78 59 -96 -19 -505 -81
-427 -107 -565 -180 -950 -31 -168 -65 -318 -76 -342 -29 -59 -88 -109 -153
-128 -62 -18 -71 -17 -461 45 -507 81 -1222 152 -1820 182 -319 15 -1307 15
-1620 0 -613 -31 -1307 -100 -1825 -182 -376 -60 -390 -61 -446 -50 -67 14
-135 66 -163 123 -20 41 -53 204 -196 957 -31 162 -74 385 -96 495 -21 110
-39 215 -39 233 0 68 57 152 134 197 47 27 113 42 389 85 818 128 1724 210
2587 234 211 6 1102 -3 1320 -14z m-1417 -2917 l62 -188 208 -5 208 -5 -158
-114 c-87 -63 -162 -117 -167 -122 -4 -4 20 -93 54 -199 34 -105 60 -193 57
-196 -2 -2 -58 35 -123 82 -65 48 -139 101 -164 120 l-46 32 -163 -119 c-90
-66 -166 -118 -168 -115 -3 2 23 91 57 196 34 106 58 196 53 200 -4 4 -79 58
-166 121 l-158 114 208 5 207 5 58 180 c71 218 67 209 74 202 3 -3 33 -90 67
-194z m1246 22 c29 -88 57 -172 63 -187 l10 -28 206 -2 206 -3 -164 -119 c-91
-66 -166 -120 -167 -120 -1 -1 27 -91 62 -200 35 -110 58 -195 51 -193 -6 3
-83 57 -170 120 l-158 116 -72 -53 c-164 -121 -258 -187 -261 -184 -2 2 23 87
55 188 33 102 60 190 60 196 0 7 -72 63 -160 125 -87 63 -159 117 -160 122 0
4 91 7 203 7 l203 0 63 196 c35 108 67 192 71 187 4 -4 31 -80 59 -168z"/>
<path d="M3985 6558 c-37 -22 -46 -41 -42 -96 4 -64 22 -84 73 -84 51 0 74 28
74 92 0 73 -54 118 -105 88z"/>
<path d="M4713 6560 c-30 -12 -43 -41 -43 -93 0 -60 24 -89 73 -89 21 0 44 5
52 12 40 33 25 153 -21 170 -29 12 -32 12 -61 0z"/>
<path d="M3260 5947 c-3 -3 -3 -33 -2 -66 4 -60 4 -61 34 -61 31 0 68 16 80
34 13 19 9 63 -7 76 -16 13 -96 26 -105 17z"/>
<path d="M5220 5811 l0 -141 46 0 c96 0 149 53 147 147 -2 86 -33 115 -140
128 l-53 7 0 -141z"/>
<path d="M3424 4410 c-112 -16 -204 -92 -245 -200 -18 -46 -20 -72 -17 -160 4
-118 14 -145 81 -217 49 -53 94 -78 165 -91 151 -27 293 42 359 176 25 51 28
67 28 157 0 82 -4 109 -22 148 -50 109 -121 167 -227 186 -33 6 -62 10 -65 10
-3 -1 -29 -5 -57 -9z m140 -143 c14 -10 37 -40 52 -68 52 -104 28 -256 -49
-311 -43 -31 -134 -32 -174 -2 -47 35 -76 98 -80 178 -4 63 -1 77 24 126 38
75 81 103 150 98 28 -3 63 -12 77 -21z"/>
<path d="M4150 4406 c-74 -16 -107 -35 -162 -94 -57 -61 -73 -91 -88 -170 -32
-161 30 -306 157 -369 48 -23 73 -28 153 -31 60 -2 111 2 140 10 l45 14 7 64
c4 35 6 65 4 67 -2 2 -20 -4 -41 -13 -51 -21 -171 -22 -210 -1 -131 68 -143
275 -22 371 31 25 49 31 102 34 43 3 82 -1 114 -12 28 -9 52 -16 56 -16 3 0 5
30 3 68 l-3 67 -65 11 c-84 15 -122 15 -190 0z"/>
<path d="M2781 4390 c-108 -23 -171 -92 -171 -190 0 -92 44 -143 170 -195 102
-42 132 -68 128 -110 -6 -65 -139 -86 -235 -36 -23 11 -45 21 -48 21 -7 0 -6
-56 1 -102 6 -34 11 -39 47 -49 60 -16 186 -14 250 5 125 36 177 140 131 257
-21 51 -69 86 -173 129 -93 37 -126 67 -117 104 4 15 20 33 38 42 39 20 134
20 184 -1 20 -8 39 -15 42 -15 9 0 -6 122 -16 132 -14 14 -176 19 -231 8z"/>
<path d="M4546 4158 c-3 -134 -7 -281 -8 -328 l-2 -85 71 -3 71 -3 6 93 c3 51
7 199 8 328 l3 235 -71 3 -71 3 -7 -243z"/>
<path d="M5040 4368 c-27 -61 -258 -623 -257 -624 1 -1 36 -4 79 -7 l76 -5 28
75 27 75 51 -6 c28 -3 81 -6 117 -6 l67 0 19 -72 20 -73 54 -8 c30 -4 66 -6
81 -5 l27 3 -34 105 c-18 58 -63 204 -100 325 -37 121 -70 223 -74 226 -3 4
-43 10 -88 14 -80 6 -83 6 -93 -17z m125 -254 c18 -71 31 -131 30 -133 -7 -6
-166 11 -163 18 2 4 23 62 48 129 25 66 46 119 48 117 2 -1 18 -61 37 -131z"/>
<path d="M2195 4353 c-64 -22 -131 -88 -141 -138 -22 -120 34 -191 195 -246
71 -25 100 -44 112 -76 31 -82 -124 -123 -241 -63 -23 12 -43 20 -44 18 -2 -2
-1 -33 2 -70 4 -67 5 -67 39 -79 49 -16 198 -13 256 4 96 30 147 93 147 182 0
96 -46 147 -178 200 -96 38 -128 57 -134 82 -9 35 9 60 57 79 40 15 56 16 103
7 32 -6 68 -14 81 -18 l23 -8 -7 64 c-4 35 -9 66 -12 69 -3 3 -50 6 -106 7
-75 2 -115 -2 -152 -14z"/>
<path d="M5445 4315 c-4 -31 -6 -58 -3 -60 2 -2 44 -8 93 -12 l90 -8 -2 -30
c-25 -331 -35 -497 -30 -501 3 -3 36 -7 74 -7 l68 -2 11 155 c7 85 15 204 19
264 l7 108 94 -4 c89 -4 94 -3 94 17 1 11 3 36 6 56 l5 37 -53 6 c-29 3 -125
10 -213 16 -88 6 -181 13 -207 15 l-46 5 -7 -55z"/>
<path d="M6090 4304 c0 -11 -14 -149 -30 -309 -17 -159 -30 -299 -30 -310 0
-20 10 -22 190 -39 105 -11 192 -17 194 -15 2 2 7 29 11 60 l7 56 -99 8 c-154
11 -146 6 -141 86 2 37 6 71 10 74 3 4 50 1 103 -4 53 -6 101 -9 106 -6 5 4 9
30 9 59 l0 53 -102 12 c-56 6 -103 12 -104 14 -1 1 1 34 5 72 6 67 7 70 31 69
14 -1 66 -5 116 -9 l91 -7 6 53 c4 32 3 56 -4 59 -5 4 -71 12 -146 19 -74 6
-155 14 -179 18 -39 5 -44 3 -44 -13z"/>
<path d="M1585 4303 l-40 -4 -87 -341 -87 -340 37 6 c20 3 54 6 75 6 43 0 49
10 67 101 l11 57 87 6 c48 4 101 10 118 12 30 6 32 4 60 -66 l29 -72 75 7 c41
4 77 9 79 11 2 2 -16 48 -42 101 -25 54 -63 136 -85 183 -22 47 -67 142 -100
213 l-61 127 -48 -2 c-26 -1 -66 -3 -88 -5z m152 -384 c-7 -4 -45 -9 -86 -13
-59 -5 -72 -4 -68 7 3 7 15 63 27 123 11 60 23 116 26 124 3 8 29 -40 59 -110
37 -87 50 -127 42 -131z"/>
</g>
</svg>
