<svg id="svg" version="1.1" xmlns="http://www.w3.org/2000/svg" xmlns:xlink="http://www.w3.org/1999/xlink" width="400"
    height="400" viewBox="0, 0, 400,400">
    <defs>
        <linearGradient id="grad1" x1="0%" y1="0%" x2="100%" y2="0%">
        <stop offset="0%" stop-color="#FFDB6E" />
        <stop offset="100%" stop-color="#FFBC5E" />
        </linearGradient>
    </defs>
    <g id="svgg" fill="url(#grad1)" stroke="none">
        <path id="path0"
            d="M190.800 12.569 C 189.920 12.779,175.756 17.084,159.325 22.134 C 142.893 27.184,127.053 31.971,124.125 32.771 C 121.196 33.572,115.020 35.358,110.400 36.740 C 105.780 38.123,98.220 40.372,93.600 41.739 C 79.659 45.863,73.345 50.356,68.517 59.587 L 66.000 64.400 65.759 104.200 L 65.517 144.000 63.514 144.000 C 59.115 144.000,32.600 148.862,30.182 150.113 C 23.578 153.528,19.774 158.167,18.301 164.606 C 17.323 168.875,17.118 167.577,25.984 213.200 C 28.891 228.160,31.654 242.740,32.125 245.600 C 34.676 261.104,46.881 268.022,63.728 263.513 C 65.344 263.081,65.490 263.409,65.966 268.525 C 70.152 313.486,119.977 359.764,192.440 385.994 L 200.056 388.751 207.428 386.051 C 279.134 359.792,330.046 312.889,334.019 269.428 L 334.583 263.256 338.291 263.828 C 360.747 267.292,364.826 262.955,371.239 228.800 C 373.098 218.900,376.196 202.700,378.123 192.800 C 384.062 162.299,383.340 157.710,371.558 151.094 C 367.759 148.961,343.233 144.000,336.485 144.000 L 334.482 144.000 334.241 103.800 L 334.000 63.600 331.885 59.600 C 325.595 47.701,323.241 46.531,280.400 34.016 C 270.280 31.060,249.813 24.897,234.918 20.320 C 206.863 11.701,199.690 10.441,190.800 12.569 M222.484 32.458 C 260.872 43.723,308.572 58.514,312.000 60.214 C 319.249 63.810,319.200 63.502,319.200 105.406 L 319.200 141.673 316.600 141.252 C 262.125 132.448,147.099 132.423,83.800 141.203 L 80.800 141.619 80.800 105.584 C 80.800 56.900,76.068 63.447,121.348 49.486 C 205.336 23.590,197.031 24.988,222.484 32.458 M164.160 65.760 C 162.964 66.956,162.922 69.002,164.070 70.150 C 164.696 70.776,164.696 71.170,164.070 71.557 C 163.543 71.883,163.200 75.071,163.200 79.647 L 163.200 87.200 166.000 87.200 L 168.800 87.200 168.800 79.647 C 168.800 75.437,168.443 71.874,167.994 71.596 C 167.494 71.287,167.646 70.640,168.394 69.892 C 169.921 68.365,169.911 67.625,168.343 66.057 C 166.840 64.554,165.464 64.456,164.160 65.760 M245.646 66.354 C 244.741 67.259,244.000 68.551,244.000 69.225 C 244.000 69.899,243.460 70.657,242.800 70.911 C 241.313 71.481,241.166 76.000,242.634 76.000 C 243.380 76.000,243.661 77.504,243.641 81.400 L 243.613 86.800 246.606 87.048 L 249.600 87.297 249.600 81.648 L 249.600 76.000 252.362 76.000 L 255.124 76.000 255.362 80.973 C 255.633 86.636,257.677 88.756,261.855 87.708 C 264.621 87.014,265.095 82.400,262.400 82.400 C 261.067 82.400,260.800 81.867,260.800 79.200 C 260.800 76.533,261.067 76.000,262.400 76.000 C 263.589 76.000,264.000 75.467,264.000 73.925 C 264.000 72.523,263.481 71.715,262.400 71.432 C 261.365 71.161,260.800 70.341,260.800 69.107 C 260.800 68.058,260.463 67.200,260.052 67.200 C 258.200 67.200,255.200 68.866,255.200 69.895 C 255.200 71.327,253.452 72.021,251.277 71.452 C 248.930 70.838,249.182 69.600,251.653 69.600 C 253.421 69.600,253.671 69.294,253.453 67.400 C 253.113 64.444,248.212 63.788,245.646 66.354 M136.000 76.800 L 136.000 87.200 138.800 87.200 L 141.600 87.200 141.637 81.400 L 141.675 75.600 143.526 81.200 C 146.264 89.485,149.958 89.915,152.400 82.233 L 154.000 77.200 154.238 82.200 L 154.476 87.200 157.638 87.200 L 160.800 87.200 160.800 76.800 L 160.800 66.400 156.563 66.400 L 152.325 66.400 150.340 72.518 L 148.355 78.635 146.437 72.518 L 144.518 66.400 140.259 66.400 L 136.000 66.400 136.000 76.800 M173.849 72.740 C 166.106 77.525,171.234 89.372,180.311 87.669 C 185.011 86.788,184.753 81.544,180.040 82.176 C 177.107 82.569,176.841 82.440,176.322 80.375 C 175.604 77.513,177.749 75.730,181.041 76.453 C 183.216 76.931,183.302 76.839,183.056 74.276 C 182.731 70.878,178.110 70.108,173.849 72.740 M185.324 71.743 C 185.036 72.031,184.800 75.648,184.800 79.782 L 184.800 87.297 187.800 87.048 L 190.800 86.800 191.036 81.886 C 191.261 77.205,191.377 76.956,193.474 76.648 C 195.489 76.352,195.647 76.515,195.345 78.574 C 194.544 84.033,199.187 88.601,204.639 87.716 C 208.383 87.109,211.123 84.364,211.722 80.620 C 212.192 77.678,212.262 77.618,213.368 79.197 C 214.003 80.103,215.665 81.379,217.061 82.030 L 219.600 83.215 217.200 82.863 C 215.880 82.670,214.170 82.268,213.400 81.970 C 212.228 81.517,212.000 81.891,212.000 84.265 C 212.000 89.166,223.263 88.990,224.550 84.069 C 224.856 82.898,225.358 83.118,227.680 85.440 C 233.243 91.003,242.263 86.439,241.370 78.512 C 240.299 69.013,226.920 68.400,225.047 77.763 C 224.664 79.682,224.410 79.872,223.381 79.013 C 222.713 78.456,221.229 77.547,220.084 76.993 C 218.078 76.024,218.115 76.000,221.048 76.350 C 224.057 76.710,224.092 76.683,223.848 74.157 C 223.428 69.826,215.584 70.015,212.904 74.422 L 211.457 76.801 210.538 74.784 C 208.749 70.857,201.265 69.862,198.009 73.119 C 196.092 75.035,196.090 75.035,195.845 73.319 C 195.600 71.597,186.789 70.278,185.324 71.743 M205.448 79.407 C 205.675 82.144,205.523 82.400,203.664 82.400 C 201.245 82.400,199.987 79.144,201.637 77.155 C 203.377 75.059,205.176 76.122,205.448 79.407 M235.035 77.276 C 236.303 79.543,235.228 82.400,233.107 82.400 C 231.479 82.400,231.200 82.010,231.200 79.733 C 231.200 75.921,233.464 74.470,235.035 77.276 M139.138 100.738 C 133.122 106.755,138.662 116.728,146.800 114.533 C 150.823 113.447,150.557 110.843,146.489 111.493 C 140.616 112.432,137.798 106.929,142.000 102.727 C 143.688 101.039,144.456 100.813,146.929 101.277 C 149.488 101.757,149.791 101.652,149.329 100.448 C 149.038 99.690,148.800 98.919,148.800 98.735 C 148.800 97.101,141.199 98.678,139.138 100.738 M155.056 100.962 C 154.855 102.413,154.715 105.940,154.745 108.800 L 154.800 114.000 158.698 114.248 C 163.421 114.548,164.926 114.060,164.301 112.430 C 164.004 111.658,162.819 111.200,161.114 111.200 C 157.258 111.200,157.157 108.221,161.000 107.851 C 162.666 107.690,163.600 107.169,163.600 106.400 C 163.600 105.631,162.666 105.110,161.000 104.949 C 157.052 104.569,157.281 101.600,161.259 101.600 C 166.214 101.600,164.631 98.861,159.503 98.562 C 155.434 98.325,155.421 98.332,155.056 100.962 M170.133 98.933 C 168.621 100.446,169.583 114.400,171.200 114.400 C 172.531 114.400,172.800 113.867,172.800 111.225 C 172.800 107.366,174.287 107.533,176.849 111.679 C 177.816 113.244,179.183 114.400,180.065 114.400 C 182.060 114.400,182.005 113.216,179.872 110.220 C 178.469 108.250,178.319 107.514,179.072 106.308 C 182.150 101.378,174.226 94.841,170.133 98.933 M184.422 99.165 C 183.607 100.484,184.719 101.600,186.847 101.600 C 188.755 101.600,188.800 101.748,188.800 108.000 C 188.800 113.867,188.933 114.400,190.400 114.400 C 191.867 114.400,192.000 113.867,192.000 108.000 C 192.000 101.658,192.019 101.600,194.059 101.600 C 195.588 101.600,196.049 101.240,195.850 100.200 C 195.540 98.571,185.359 97.649,184.422 99.165 M201.333 98.933 C 199.821 100.446,200.783 114.400,202.400 114.400 C 203.893 114.400,204.000 113.867,204.000 106.400 C 204.000 98.660,203.370 96.896,201.333 98.933 M210.969 98.897 C 210.656 99.210,210.400 102.827,210.400 106.933 L 210.400 114.400 212.484 114.400 C 214.433 114.400,214.548 114.193,214.263 111.200 C 213.963 108.056,214.003 108.000,216.579 108.000 C 218.667 108.000,219.200 107.674,219.200 106.400 C 219.200 105.156,218.667 104.800,216.800 104.800 C 213.208 104.800,213.387 101.799,217.000 101.451 C 218.666 101.290,219.600 100.769,219.600 100.000 C 219.600 98.722,212.102 97.765,210.969 98.897 M225.573 98.541 C 224.762 106.233,225.523 114.025,227.106 114.260 C 229.539 114.620,229.433 99.016,227.000 98.551 C 226.230 98.403,225.588 98.399,225.573 98.541 M235.200 106.400 L 235.200 114.400 240.059 114.400 C 245.890 114.400,247.020 111.818,241.393 111.352 C 237.350 111.016,237.037 108.233,241.000 107.851 C 242.666 107.690,243.600 107.169,243.600 106.400 C 243.600 105.631,242.666 105.110,241.000 104.949 C 237.095 104.573,237.272 101.600,241.200 101.600 C 243.467 101.600,244.000 101.295,244.000 100.000 C 244.000 98.594,243.467 98.400,239.600 98.400 L 235.200 98.400 235.200 106.400 M250.133 98.933 C 249.840 99.227,249.600 102.827,249.600 106.933 L 249.600 114.400 254.062 114.400 C 263.299 114.400,267.211 103.463,259.453 99.331 C 257.578 98.332,251.014 98.052,250.133 98.933 M176.800 103.200 C 176.800 104.373,176.267 104.800,174.800 104.800 C 173.333 104.800,172.800 104.373,172.800 103.200 C 172.800 102.027,173.333 101.600,174.800 101.600 C 176.267 101.600,176.800 102.027,176.800 103.200 M258.743 102.857 C 261.515 105.629,259.333 111.200,255.476 111.200 C 253.716 111.200,253.600 110.902,253.600 106.400 C 253.600 101.201,255.664 99.779,258.743 102.857 M236.000 144.433 C 271.914 145.375,322.696 150.575,357.166 156.840 C 371.949 159.527,374.291 162.645,371.643 176.114 C 371.007 179.351,369.935 185.060,369.262 188.800 C 356.347 260.543,357.564 257.897,339.109 254.378 C 263.059 239.880,125.002 239.906,61.200 254.432 C 52.112 256.501,44.970 254.538,42.833 249.382 C 41.513 246.198,39.142 234.061,29.066 178.902 L 26.892 167.004 28.446 164.167 C 30.815 159.841,33.258 158.567,42.400 156.892 C 88.311 148.480,161.687 142.567,206.400 143.675 C 213.220 143.844,226.540 144.185,236.000 144.433 M196.200 162.995 L 189.600 163.265 189.600 176.032 L 189.600 188.800 197.200 188.800 L 204.800 188.800 204.800 186.000 L 204.800 183.200 200.139 183.200 L 195.477 183.200 195.829 180.800 C 196.146 178.641,196.473 178.399,199.091 178.388 C 205.756 178.360,206.203 173.460,199.600 172.800 C 193.200 172.160,193.298 168.000,199.714 168.000 L 204.000 168.000 204.000 165.200 C 204.000 163.660,203.730 162.473,203.400 162.563 C 203.070 162.652,199.830 162.847,196.200 162.995 M157.227 163.956 C 156.939 164.422,156.749 167.952,156.805 171.801 C 156.951 181.911,156.924 182.162,155.543 183.543 C 152.013 187.073,148.003 183.598,147.993 177.000 C 147.977 166.281,147.308 164.000,144.179 164.000 L 141.380 164.000 141.771 173.474 C 142.321 186.837,144.215 189.600,152.825 189.600 C 160.781 189.600,163.109 185.228,162.410 171.600 C 162.003 163.656,161.985 163.598,159.876 163.354 C 158.707 163.219,157.515 163.490,157.227 163.956 M167.200 174.771 C 167.200 187.722,167.670 189.594,170.772 189.001 C 172.669 188.639,172.800 188.310,172.800 183.907 C 172.800 177.326,174.843 177.357,178.995 184.000 C 181.796 188.481,182.195 188.800,184.998 188.800 C 188.803 188.800,188.763 188.285,184.490 182.172 L 180.981 177.151 182.890 174.931 C 187.969 169.027,183.940 163.723,174.069 163.318 L 167.200 163.036 167.200 174.771 M218.400 175.902 L 218.400 188.800 224.230 188.800 C 234.670 188.800,240.377 183.955,240.245 175.204 C 240.121 166.967,236.282 163.903,225.400 163.356 L 218.400 163.004 218.400 175.902 M128.000 164.765 L 119.600 165.200 119.347 167.400 L 119.094 169.600 125.100 169.600 L 131.106 169.600 125.274 178.975 C 117.671 191.197,117.725 191.405,128.301 190.782 C 139.681 190.110,140.000 190.014,140.000 187.246 L 140.000 184.923 134.000 185.377 C 130.700 185.627,128.000 185.627,128.000 185.378 C 128.000 185.129,130.371 180.963,133.270 176.121 C 138.129 168.003,139.242 164.690,137.200 164.431 C 136.760 164.375,132.620 164.526,128.000 164.765 M249.547 166.140 C 249.079 167.370,248.197 169.461,247.585 170.788 C 239.708 187.886,239.346 189.600,243.615 189.600 C 246.096 189.600,246.420 189.318,247.295 186.400 C 248.769 181.480,255.958 181.425,257.574 186.320 C 258.401 188.828,259.085 189.537,261.052 189.930 C 264.948 190.710,264.916 189.886,260.543 176.800 L 256.400 164.400 253.399 164.152 C 250.747 163.932,250.298 164.164,249.547 166.140 M263.471 165.247 C 262.506 167.762,263.595 169.198,266.656 169.451 L 269.700 169.703 269.137 180.051 L 268.574 190.400 271.369 190.400 L 274.163 190.400 274.677 183.800 C 274.959 180.170,275.193 175.441,275.195 173.291 L 275.200 169.383 278.712 169.864 C 282.231 170.346,284.118 168.292,282.479 165.764 C 281.650 164.486,263.948 164.004,263.471 165.247 M102.112 167.019 C 101.901 167.360,100.452 172.490,98.892 178.419 C 97.331 184.349,95.820 190.010,95.534 191.000 C 95.063 192.628,95.287 192.800,97.875 192.800 C 100.520 192.800,100.808 192.558,101.695 189.600 C 102.543 186.768,102.937 186.399,105.127 186.389 C 106.487 186.383,108.363 186.173,109.297 185.923 C 110.625 185.566,111.103 185.904,111.498 187.478 C 112.267 190.544,113.938 191.791,116.729 191.381 C 119.909 190.914,120.091 191.692,113.625 178.110 L 108.051 166.400 105.273 166.400 C 103.745 166.400,102.322 166.679,102.112 167.019 M285.535 175.000 C 277.601 191.429,277.650 191.200,282.082 191.200 C 284.344 191.200,284.833 190.822,285.709 188.400 C 287.420 183.668,294.584 184.557,296.122 189.692 C 296.968 192.516,297.304 192.800,299.790 192.800 C 302.911 192.800,302.911 192.781,299.990 182.400 C 299.186 179.540,297.905 174.770,297.145 171.800 L 295.763 166.400 292.726 166.400 L 289.689 166.400 285.535 175.000 M178.358 169.149 C 180.171 171.333,176.825 174.973,174.000 173.889 C 173.260 173.605,172.800 172.389,172.800 170.714 C 172.800 167.706,176.334 166.710,178.358 169.149 M232.992 170.438 C 236.735 175.060,233.725 182.504,227.652 183.643 C 224.007 184.327,224.269 185.019,224.644 175.705 L 224.961 167.811 228.272 168.255 C 230.313 168.529,232.124 169.367,232.992 170.438 M255.139 177.800 C 255.173 178.130,254.120 178.400,252.800 178.400 C 249.985 178.400,250.007 178.479,251.776 174.768 L 253.152 171.883 254.115 174.541 C 254.645 176.004,255.106 177.470,255.139 177.800 M107.686 178.515 C 108.726 180.576,108.684 180.638,106.078 180.943 C 103.429 181.252,103.411 181.232,104.172 178.827 C 105.745 173.862,105.741 173.869,106.203 175.200 C 106.432 175.860,107.100 177.352,107.686 178.515 M293.285 178.225 C 293.775 180.675,293.681 180.800,291.359 180.800 L 288.919 180.800 290.259 177.645 C 291.734 174.174,292.504 174.322,293.285 178.225 M182.753 201.835 C 182.534 202.404,182.455 208.254,182.578 214.835 L 182.800 226.800 185.200 226.800 L 187.600 226.800 187.841 218.800 L 188.081 210.800 191.303 219.000 C 195.668 230.110,197.106 230.289,200.940 220.200 L 203.600 213.200 203.805 218.400 C 204.127 226.599,204.389 227.200,207.635 227.200 L 210.440 227.200 210.220 214.200 L 210.000 201.200 206.716 200.960 C 203.054 200.692,203.026 200.733,198.364 213.553 C 196.742 218.015,196.419 218.445,195.960 216.753 C 194.963 213.082,190.126 202.001,189.262 201.412 C 187.821 200.430,183.176 200.732,182.753 201.835 M216.157 201.503 C 215.411 201.964,215.213 205.250,215.378 214.461 L 215.600 226.800 223.000 227.030 L 230.400 227.260 230.400 224.830 C 230.400 223.469,229.960 222.359,229.400 222.308 C 228.850 222.257,228.040 222.132,227.600 222.030 C 227.160 221.927,225.450 221.789,223.800 221.722 C 218.413 221.503,219.324 216.800,224.753 216.800 C 229.107 216.800,229.995 216.082,229.260 213.155 C 228.821 211.407,228.345 211.200,224.754 211.200 C 218.296 211.200,219.036 206.997,225.600 206.400 C 229.690 206.028,230.018 205.845,230.253 203.800 C 230.392 202.590,230.212 201.593,229.853 201.585 C 229.494 201.577,226.491 201.416,223.179 201.228 C 219.867 201.039,216.708 201.163,216.157 201.503 M136.800 202.400 L 133.200 202.800 133.553 212.800 C 133.747 218.300,133.927 223.880,133.953 225.200 L 134.000 227.600 139.868 227.836 C 149.841 228.238,155.544 223.451,155.463 214.744 C 155.375 205.269,148.990 201.046,136.800 202.400 M160.866 213.801 C 156.101 228.100,156.113 228.000,159.102 228.000 C 161.803 228.000,162.810 226.961,163.574 223.388 C 164.490 219.106,171.676 219.647,173.437 224.131 C 174.501 226.839,174.958 227.200,177.321 227.200 C 180.887 227.200,180.846 226.893,175.440 213.173 L 170.880 201.600 167.906 201.600 L 164.933 201.600 160.866 213.801 M234.013 209.000 C 233.019 222.717,233.566 226.800,236.400 226.800 L 238.800 226.800 239.030 218.443 L 239.259 210.087 243.319 216.843 C 249.566 227.239,250.213 228.000,252.807 228.000 C 255.909 228.000,255.806 228.422,256.114 214.400 L 256.386 202.000 253.906 201.758 L 251.425 201.515 250.712 209.605 L 250.000 217.695 245.256 209.648 C 240.595 201.739,240.462 201.600,237.531 201.600 L 234.549 201.600 234.013 209.000 M124.314 202.955 C 122.706 203.266,122.646 203.635,123.023 210.841 C 123.503 220.033,123.765 220.017,117.200 211.200 C 112.048 204.281,111.717 204.000,108.720 204.000 C 105.060 204.000,105.242 202.858,106.427 218.385 C 107.320 230.096,107.613 230.871,110.842 230.061 L 113.000 229.519 112.436 221.560 C 111.754 211.943,111.275 211.976,118.034 221.175 C 123.375 228.443,123.724 228.751,126.679 228.775 L 129.758 228.800 129.177 219.400 C 128.158 202.896,127.966 202.249,124.314 202.955 M259.347 204.600 C 259.574 206.573,259.955 206.826,263.039 207.048 C 265.823 207.249,266.405 207.553,266.097 208.648 C 265.887 209.392,265.600 214.140,265.458 219.200 L 265.200 228.400 267.680 228.642 L 270.161 228.884 270.675 223.442 C 270.957 220.449,271.191 216.319,271.194 214.265 C 271.203 208.629,271.654 208.000,275.686 208.000 C 279.020 208.000,279.200 207.883,279.200 205.709 C 279.200 203.024,276.606 202.400,265.435 202.400 L 259.094 202.400 259.347 204.600 M284.077 207.351 C 283.248 209.248,280.750 214.667,278.526 219.394 C 274.724 227.475,274.573 228.036,275.989 228.794 C 278.897 230.350,280.504 229.736,281.737 226.598 C 283.538 222.013,290.665 222.428,292.095 227.201 C 292.883 229.832,293.375 230.292,295.691 230.563 C 299.755 231.037,299.801 231.578,294.240 213.200 L 291.578 204.400 288.581 204.151 C 285.736 203.915,285.509 204.076,284.077 207.351 M95.611 214.721 L 96.183 224.643 94.131 225.988 C 89.251 229.185,85.764 221.418,85.607 207.000 C 85.603 206.670,84.294 206.400,82.697 206.400 L 79.794 206.400 80.285 210.200 C 80.556 212.290,81.016 216.637,81.309 219.861 C 82.379 231.651,91.858 236.265,99.437 228.686 L 101.834 226.289 101.295 216.753 C 100.645 205.256,100.498 204.800,97.434 204.800 L 95.039 204.800 95.611 214.721 M303.620 205.567 C 303.358 205.992,302.792 210.403,302.364 215.370 C 301.935 220.336,301.429 225.742,301.239 227.382 C 300.807 231.113,300.903 231.165,309.175 231.723 L 316.000 232.183 316.000 229.692 C 316.000 227.296,315.870 227.200,312.600 227.188 C 306.985 227.168,306.975 227.143,307.997 216.036 C 308.493 210.644,308.786 206.140,308.649 206.029 C 307.726 205.275,304.011 204.935,303.620 205.567 M67.000 208.193 C 61.625 209.114,61.928 207.753,63.703 223.000 L 65.031 234.400 67.809 234.400 L 70.586 234.400 70.038 229.283 L 69.490 224.165 73.545 223.608 C 77.338 223.086,77.600 222.903,77.600 220.772 C 77.600 217.861,77.183 217.655,72.672 218.350 C 69.006 218.915,68.937 218.885,68.467 216.534 C 67.873 213.563,67.825 213.606,72.522 212.939 C 76.177 212.421,76.414 212.240,76.651 209.794 C 76.937 206.827,75.942 206.661,67.000 208.193 M147.214 208.651 C 152.306 212.774,149.347 222.050,142.654 222.947 L 139.310 223.396 139.055 215.296 L 138.800 207.197 142.111 207.198 C 144.115 207.199,146.130 207.773,147.214 208.651 M324.310 207.984 C 317.248 210.838,318.115 218.327,326.077 223.248 C 331.625 226.676,327.470 230.648,321.468 227.654 C 317.957 225.902,317.600 226.038,317.600 229.122 C 317.600 235.138,331.968 235.471,334.437 229.512 C 336.139 225.402,334.565 222.453,328.049 217.543 C 322.938 213.693,326.654 211.554,334.200 214.002 C 335.840 214.535,336.000 214.332,336.000 211.731 C 336.000 207.919,329.571 205.858,324.310 207.984 M169.449 213.400 C 170.299 215.946,170.267 216.000,167.930 216.000 C 165.905 216.000,165.657 215.788,166.293 214.600 C 167.109 213.075,167.200 212.678,167.200 210.640 C 167.200 208.758,168.386 210.213,169.449 213.400 M289.320 216.113 C 290.138 218.884,290.104 219.258,289.068 218.860 C 288.409 218.607,287.200 218.400,286.382 218.400 C 285.015 218.400,284.987 218.223,286.043 216.200 C 286.674 214.990,287.192 213.490,287.195 212.867 C 287.203 211.000,288.309 212.690,289.320 216.113 M214.434 302.400 L 223.593 302.800 216.797 307.534 C 208.200 313.522,208.622 312.392,211.609 321.445 C 214.758 330.989,215.073 330.765,206.877 324.810 L 200.054 319.853 197.427 321.680 C 195.982 322.684,192.730 325.079,190.200 327.000 C 187.670 328.921,185.600 330.363,185.600 330.204 C 185.600 330.045,186.836 326.245,188.346 321.760 C 191.496 312.407,191.970 313.673,182.888 307.200 L 176.714 302.800 185.811 302.576 L 194.908 302.352 196.757 296.176 C 200.139 284.876,199.797 285.001,202.697 294.000 L 205.274 302.000 214.434 302.400 "></path>
    </g>
</svg>