<svg id="svg" version="1.1" xmlns="http://www.w3.org/2000/svg" xmlns:xlink="http://www.w3.org/1999/xlink" width="400"
    height="400" viewBox="0, 0, 400,400">
    <defs>
        <linearGradient id="grad1" x1="0%" y1="0%" x2="100%" y2="0%">
        <stop offset="0%" stop-color="#FFDB6E" />
        <stop offset="100%" stop-color="#FFBC5E" />
        </linearGradient>
    </defs>
    <g id="svgg" fill="url(#grad1)" stroke="none">
        <path id="path0"
            d="M193.894 4.905 C 191.196 5.292,177.876 8.989,164.294 13.120 C 150.713 17.251,128.620 23.938,115.200 27.980 C 79.258 38.806,78.292 39.122,74.679 41.233 C 61.227 49.097,60.011 54.350,60.005 104.600 C 60.002 125.390,59.761 142.400,59.470 142.400 C 56.991 142.400,27.577 147.525,24.713 148.456 C 17.484 150.805,11.677 157.675,10.730 164.997 C 10.278 168.493,25.347 249.698,27.394 254.794 C 31.085 263.988,40.196 268.068,52.590 266.076 C 60.849 264.749,59.959 264.296,60.503 270.098 C 64.479 312.438,99.254 350.120,162.677 380.812 C 195.176 396.540,198.356 397.322,210.454 392.569 C 287.999 362.103,335.192 317.179,339.507 269.718 C 339.982 264.500,339.578 264.836,344.400 265.639 C 358.831 268.041,368.269 264.552,372.305 255.322 C 374.544 250.202,389.775 168.902,389.252 164.865 C 388.332 157.766,382.339 150.746,375.225 148.435 C 372.405 147.519,342.977 142.400,340.530 142.400 C 340.239 142.400,339.998 125.390,339.995 104.600 C 339.988 47.482,338.638 44.235,311.489 36.050 C 305.830 34.344,287.880 28.922,271.600 24.001 C 215.079 6.916,210.781 5.660,207.200 5.190 C 199.988 4.242,198.714 4.214,193.894 4.905 M166.267 61.885 C 166.655 63.918,165.304 65.068,163.281 64.426 C 161.652 63.909,161.013 61.654,162.167 60.500 C 163.215 59.451,165.981 60.386,166.267 61.885 M255.040 61.738 C 255.208 62.623,254.670 63.165,253.455 63.338 C 251.057 63.680,250.423 66.400,252.741 66.400 C 254.949 66.400,255.027 69.586,252.833 70.159 C 251.492 70.510,251.233 71.391,251.033 76.285 C 250.809 81.785,250.725 82.000,248.800 82.000 C 246.872 82.000,246.792 81.791,246.565 76.200 C 246.385 71.763,246.056 70.400,245.165 70.400 C 244.456 70.400,244.000 69.618,244.000 68.400 C 244.000 67.156,244.453 66.400,245.200 66.400 C 245.867 66.400,246.400 65.689,246.400 64.800 C 246.400 60.827,254.335 58.015,255.040 61.738 M143.595 68.454 L 145.971 75.307 147.405 71.930 C 148.194 70.073,149.233 66.989,149.714 65.077 C 150.581 61.637,150.627 61.600,154.095 61.600 L 157.600 61.600 157.600 72.053 L 157.600 82.506 155.400 82.253 C 153.229 82.003,153.195 81.911,152.800 75.200 L 152.400 68.400 150.906 73.200 C 146.808 86.363,145.169 86.005,139.907 70.800 L 138.800 67.600 138.569 75.052 C 138.347 82.226,138.273 82.494,136.569 82.252 C 134.863 82.009,134.792 81.637,134.576 71.800 L 134.352 61.600 137.786 61.600 L 141.219 61.600 143.595 68.454 M263.200 64.307 C 263.200 65.541,263.765 66.361,264.800 66.632 C 265.680 66.862,266.400 67.658,266.400 68.400 C 266.400 69.142,265.680 69.938,264.800 70.168 C 263.476 70.515,263.200 71.259,263.200 74.493 C 263.200 77.867,263.418 78.400,264.800 78.400 C 267.234 78.400,266.898 81.445,264.394 82.073 C 260.493 83.052,258.400 80.646,258.400 75.182 C 258.400 71.465,258.133 70.400,257.200 70.400 C 256.453 70.400,256.000 69.644,256.000 68.400 C 256.000 67.156,256.453 66.400,257.200 66.400 C 257.860 66.400,258.400 65.710,258.400 64.867 C 258.400 63.277,259.398 62.572,261.800 62.463 C 262.759 62.420,263.200 63.000,263.200 64.307 M166.229 74.200 C 166.002 81.926,165.981 82.000,164.000 82.000 C 162.044 82.000,161.995 81.853,161.765 75.267 C 161.485 67.227,161.732 66.400,164.404 66.400 L 166.458 66.400 166.229 74.200 M180.335 66.886 C 182.853 67.852,181.888 70.965,179.193 70.570 C 176.176 70.127,174.400 71.546,174.400 74.400 C 174.400 77.254,176.176 78.673,179.193 78.230 C 183.038 77.666,182.681 81.325,178.820 82.049 C 170.240 83.659,166.062 71.535,173.870 67.684 C 176.601 66.337,178.344 66.122,180.335 66.886 M188.800 67.618 C 188.800 68.691,189.035 68.683,190.765 67.549 C 192.986 66.094,194.400 66.578,194.400 68.792 C 194.400 69.729,193.735 70.384,192.620 70.544 C 190.265 70.883,188.826 73.926,188.812 78.600 C 188.801 82.117,188.651 82.400,186.800 82.400 L 184.800 82.400 184.800 74.400 L 184.800 66.400 186.800 66.400 C 188.058 66.400,188.800 66.852,188.800 67.618 M206.624 67.133 C 214.647 70.184,212.350 81.735,203.682 81.923 C 198.609 82.033,196.000 79.478,196.000 74.400 C 196.000 68.399,200.985 64.989,206.624 67.133 M222.735 66.886 C 225.321 67.878,224.220 70.400,221.200 70.400 C 217.602 70.400,217.660 71.203,221.402 73.200 C 227.824 76.627,223.809 83.443,216.208 82.017 C 211.855 81.200,212.411 77.593,216.800 78.181 C 220.850 78.725,221.073 77.270,217.189 75.647 C 209.901 72.602,215.320 64.040,222.735 66.886 M238.474 67.638 C 242.901 69.928,243.641 75.386,240.065 79.387 C 235.248 84.778,226.400 81.745,226.400 74.703 C 226.400 68.064,232.451 64.524,238.474 67.638 M200.654 72.400 C 199.347 75.270,200.885 78.400,203.603 78.400 C 206.174 78.400,207.740 75.021,206.465 72.223 C 205.293 69.651,201.859 69.756,200.654 72.400 M231.519 71.524 C 230.484 74.220,231.563 77.995,233.444 78.261 C 236.811 78.739,238.597 75.530,237.114 71.665 C 236.506 70.079,232.116 69.968,231.519 71.524 M145.600 95.461 C 145.600 96.186,144.838 96.411,143.198 96.170 C 138.039 95.413,134.637 100.644,137.140 105.485 C 138.529 108.170,140.755 109.185,143.658 108.457 C 145.794 107.921,146.359 109.138,144.335 109.914 C 141.611 110.959,138.999 110.322,136.738 108.062 C 131.612 102.935,135.110 94.400,142.338 94.400 C 144.515 94.400,145.600 94.753,145.600 95.461 M161.200 95.200 C 161.499 95.683,160.408 96.000,158.447 96.000 C 155.269 96.000,155.200 96.060,155.200 98.800 C 155.200 101.467,155.333 101.600,158.000 101.600 C 159.540 101.600,160.800 101.960,160.800 102.400 C 160.800 102.840,159.540 103.200,158.000 103.200 C 153.564 103.200,153.749 107.783,158.200 108.152 C 162.471 108.505,161.917 109.954,157.400 110.244 L 153.600 110.488 153.600 102.444 L 153.600 94.400 157.153 94.400 C 159.107 94.400,160.928 94.760,161.200 95.200 M176.853 95.228 C 178.744 96.240,178.900 99.721,177.141 101.665 C 175.987 102.941,176.063 103.330,178.058 106.344 C 180.403 109.888,180.253 111.700,177.857 108.769 C 177.056 107.788,175.649 106.076,174.731 104.965 C 172.655 102.451,171.200 103.207,171.200 106.800 C 171.200 108.288,170.840 109.728,170.400 110.000 C 169.887 110.317,169.600 107.608,169.600 102.447 L 169.600 94.400 172.453 94.400 C 174.022 94.400,176.002 94.773,176.853 95.228 M195.200 95.147 C 195.200 95.558,194.210 96.008,193.000 96.147 C 190.807 96.399,190.799 96.421,190.568 103.428 C 190.271 112.464,188.800 111.903,188.800 102.753 C 188.800 96.083,188.775 96.000,186.800 96.000 C 185.700 96.000,184.800 95.640,184.800 95.200 C 184.800 94.749,187.067 94.400,190.000 94.400 C 192.860 94.400,195.200 94.736,195.200 95.147 M203.829 102.004 C 203.546 111.405,202.091 112.158,201.765 103.072 C 201.518 96.169,201.811 94.400,203.204 94.400 C 203.765 94.400,203.980 97.004,203.829 102.004 M220.000 95.152 C 220.000 95.565,218.650 96.015,217.000 96.152 C 212.717 96.506,212.374 101.043,216.600 101.451 C 220.090 101.787,219.929 103.200,216.400 103.200 C 213.615 103.200,213.600 103.219,213.600 106.800 C 213.600 108.780,213.240 110.400,212.800 110.400 C 212.320 110.400,212.000 107.200,212.000 102.400 L 212.000 94.400 216.000 94.400 C 218.200 94.400,220.000 94.738,220.000 95.152 M229.200 102.400 C 229.200 107.662,228.905 109.965,228.200 110.200 C 227.444 110.452,227.200 108.551,227.200 102.400 C 227.200 96.249,227.444 94.348,228.200 94.600 C 228.905 94.835,229.200 97.138,229.200 102.400 M245.200 95.200 C 245.499 95.683,244.408 96.000,242.447 96.000 C 239.269 96.000,239.200 96.060,239.200 98.800 C 239.200 101.467,239.333 101.600,242.000 101.600 C 243.540 101.600,244.800 101.960,244.800 102.400 C 244.800 102.840,243.540 103.200,242.000 103.200 C 237.564 103.200,237.749 107.783,242.200 108.152 C 246.471 108.505,245.917 109.954,241.400 110.244 L 237.600 110.488 237.600 102.444 L 237.600 94.400 241.153 94.400 C 243.107 94.400,244.928 94.760,245.200 95.200 M261.543 95.570 C 269.018 99.436,264.348 110.400,255.226 110.400 L 252.800 110.400 252.800 102.400 L 252.800 94.400 256.040 94.400 C 257.822 94.400,260.298 94.927,261.543 95.570 M171.200 98.853 C 171.200 101.470,171.376 101.685,173.319 101.453 C 176.355 101.090,177.673 98.657,175.647 97.153 C 172.818 95.052,171.200 95.671,171.200 98.853 M254.400 101.895 L 254.400 108.000 257.047 108.000 C 264.969 108.000,265.284 97.533,257.400 96.271 L 254.400 95.791 254.400 101.895 M232.000 140.812 C 281.849 142.532,359.049 150.687,372.549 155.660 C 377.528 157.494,381.600 162.363,381.600 166.482 C 381.600 169.228,375.218 204.020,367.651 242.523 C 364.398 259.077,361.380 260.879,342.400 257.600 C 286.462 247.937,196.109 243.609,141.600 247.982 C 107.615 250.708,74.921 254.496,55.200 257.992 C 38.478 260.957,35.284 258.453,31.734 239.600 C 30.574 233.440,27.100 215.206,24.013 199.081 C 15.631 155.299,14.892 156.851,46.400 152.095 C 111.010 142.344,170.886 138.704,232.000 140.812 M172.819 165.600 C 165.199 167.440,165.586 173.939,173.556 177.978 C 181.018 181.759,177.825 187.321,169.800 184.520 C 167.635 183.765,167.113 186.688,169.265 187.514 C 181.276 192.123,186.129 180.261,174.600 174.474 C 168.837 171.581,171.022 167.255,177.707 168.324 C 180.437 168.761,180.800 168.630,180.800 167.209 C 180.800 166.324,180.350 165.595,179.800 165.589 C 179.250 165.583,178.080 165.432,177.200 165.253 C 176.320 165.075,174.349 165.231,172.819 165.600 M191.600 165.563 C 184.540 168.483,183.409 181.712,189.882 185.659 C 197.751 190.457,206.400 185.400,206.400 176.000 C 206.400 167.305,199.371 162.349,191.600 165.563 M211.725 172.600 C 211.441 176.890,211.206 181.930,211.204 183.800 L 211.200 187.200 217.600 187.200 C 222.756 187.200,224.000 186.967,224.000 186.000 C 224.000 185.079,222.978 184.800,219.600 184.800 L 215.200 184.800 215.200 174.800 C 215.200 165.605,215.081 164.800,213.721 164.800 C 212.418 164.800,212.180 165.732,211.725 172.600 M227.669 165.489 C 226.035 168.132,226.980 183.343,228.896 185.260 C 232.786 189.150,240.484 188.498,242.746 184.087 C 244.834 180.016,244.723 166.046,242.600 165.744 C 240.846 165.495,240.800 165.676,240.800 172.797 C 240.800 181.971,239.544 184.760,235.400 184.788 C 231.461 184.815,230.400 182.356,230.400 173.200 C 230.400 165.156,229.480 162.559,227.669 165.489 M144.497 166.171 L 141.395 166.509 141.759 177.249 C 141.960 183.157,142.276 188.135,142.462 188.311 C 143.740 189.525,154.400 187.671,154.400 186.235 C 154.400 184.823,154.009 184.734,150.000 185.235 L 145.600 185.784 145.600 182.092 L 145.600 178.400 149.200 178.400 C 154.689 178.400,154.510 175.397,149.000 175.044 C 145.237 174.802,145.200 174.773,145.200 172.000 L 145.200 169.200 149.450 168.956 C 152.942 168.756,153.655 168.471,153.444 167.356 C 153.170 165.910,150.340 165.535,144.497 166.171 M248.800 167.084 C 248.800 168.560,249.259 168.800,252.088 168.800 L 255.377 168.800 254.796 178.468 L 254.215 188.136 256.108 187.868 C 257.944 187.608,258.012 187.329,258.400 178.450 L 258.800 169.299 261.985 169.250 C 264.357 169.213,265.241 168.842,265.444 167.800 C 265.666 166.664,265.141 166.399,262.659 166.394 C 260.976 166.391,257.170 166.159,254.200 165.879 C 249.053 165.393,248.800 165.449,248.800 167.084 M269.293 171.400 C 267.921 187.211,267.980 188.800,269.942 188.800 C 271.833 188.800,272.800 182.530,272.800 170.277 C 272.800 163.765,269.875 164.702,269.293 171.400 M121.299 175.000 C 121.902 187.673,122.265 189.600,124.049 189.600 C 125.396 189.600,125.600 189.020,125.600 185.200 C 125.600 179.032,128.320 178.861,132.194 184.786 C 134.312 188.025,135.230 188.774,137.098 188.786 C 139.643 188.802,139.757 189.101,134.897 182.983 L 131.865 179.166 133.530 177.783 C 139.155 173.111,135.229 167.200,126.500 167.200 L 120.928 167.200 121.299 175.000 M284.400 168.291 C 274.066 173.048,275.825 188.965,286.822 190.205 C 293.965 191.010,298.572 186.584,298.685 178.809 C 298.804 170.563,291.364 165.085,284.400 168.291 M112.480 175.114 C 113.127 183.694,112.607 186.209,109.978 187.208 C 105.376 188.958,102.400 185.177,102.400 177.581 C 102.400 171.560,101.614 168.800,99.900 168.800 C 98.167 168.800,98.029 170.989,99.149 180.656 C 100.036 188.316,101.799 190.400,107.392 190.400 C 116.115 190.400,117.894 186.069,115.526 170.600 C 115.230 168.671,114.717 168.000,113.535 168.000 C 112.024 168.000,111.970 168.365,112.480 175.114 M200.755 169.555 C 204.411 173.211,203.418 181.419,199.047 183.679 C 191.457 187.604,185.579 176.253,191.700 169.490 C 193.541 167.455,198.692 167.492,200.755 169.555 M82.807 170.334 C 78.939 170.710,77.958 171.094,77.725 172.323 C 77.456 173.739,77.833 173.813,83.110 173.370 L 88.784 172.894 87.266 175.847 C 86.431 177.471,84.097 181.680,82.080 185.200 C 77.355 193.445,77.176 193.097,85.800 192.459 C 94.928 191.784,96.057 191.480,95.438 189.868 C 95.039 188.826,94.044 188.707,89.479 189.157 C 82.873 189.808,82.914 190.374,88.806 179.775 C 95.128 168.400,95.570 169.095,82.807 170.334 M131.627 172.086 C 132.729 175.558,129.426 178.626,126.002 177.311 C 123.893 176.502,124.394 170.575,126.600 170.230 C 129.385 169.795,131.101 170.429,131.627 172.086 M304.011 179.883 C 303.010 190.298,303.174 192.000,305.179 192.000 C 305.952 192.000,306.419 190.219,306.804 185.800 C 307.827 174.058,307.798 174.066,313.035 183.959 C 317.114 191.663,319.837 194.829,321.206 193.460 C 321.364 193.303,321.884 189.220,322.363 184.387 C 322.842 179.554,323.398 174.610,323.597 173.400 C 323.908 171.517,323.687 171.200,322.066 171.200 C 320.239 171.200,320.152 171.481,319.600 179.200 C 318.893 189.075,318.965 189.082,313.600 178.598 C 309.856 171.283,308.887 169.964,307.104 169.757 L 305.008 169.514 304.011 179.883 M292.960 172.837 C 297.701 177.578,294.529 187.200,288.224 187.200 C 281.713 187.200,278.916 177.761,283.938 172.738 C 287.006 169.670,289.824 169.701,292.960 172.837 M61.818 173.437 C 60.900 174.031,55.713 194.856,56.185 196.056 C 56.821 197.678,59.849 195.057,60.335 192.463 C 60.842 189.764,61.050 189.600,63.971 189.600 C 65.675 189.600,67.628 189.386,68.311 189.123 C 69.181 188.790,69.964 189.508,70.925 191.523 C 72.300 194.407,73.179 194.898,74.951 193.771 C 76.154 193.006,65.770 173.318,64.000 173.011 C 63.340 172.896,62.358 173.088,61.818 173.437 M331.000 174.379 C 327.090 177.466,328.202 181.611,334.012 185.608 C 340.112 189.805,337.400 194.535,330.458 191.808 C 327.248 190.548,326.400 190.683,326.400 192.455 C 326.400 195.489,336.772 196.101,339.636 193.236 C 342.973 189.899,341.529 186.065,335.543 182.365 C 331.450 179.835,331.831 176.513,336.256 176.148 C 337.937 176.010,339.822 176.321,340.446 176.838 C 341.341 177.581,341.690 177.496,342.097 176.436 C 343.406 173.025,334.749 171.420,331.000 174.379 M67.853 185.974 C 67.714 186.092,66.250 186.432,64.600 186.730 C 61.149 187.354,61.100 187.211,62.503 180.670 L 63.405 176.462 65.756 181.111 C 67.049 183.668,67.993 185.856,67.853 185.974 M163.600 202.308 C 150.684 208.254,159.059 228.272,172.348 223.220 C 176.251 221.736,174.878 220.066,170.156 220.554 C 164.040 221.185,161.200 218.728,161.200 212.804 C 161.200 207.055,164.775 203.609,170.115 204.211 C 173.057 204.542,173.600 204.384,173.600 203.195 C 173.600 200.556,168.406 200.096,163.600 202.308 M178.400 210.735 C 178.400 221.765,178.686 223.200,180.886 223.200 C 182.203 223.200,182.400 222.576,182.400 218.400 L 182.400 213.600 187.560 213.600 L 192.720 213.600 192.960 218.200 C 193.173 222.275,193.405 222.829,195.000 223.056 C 196.793 223.310,196.800 223.271,196.800 212.056 L 196.800 200.800 194.800 200.800 C 192.889 200.800,192.800 201.013,192.800 205.600 L 192.800 210.400 187.600 210.400 L 182.400 210.400 182.400 205.600 C 182.400 201.013,182.311 200.800,180.400 200.800 L 178.400 200.800 178.400 210.735 M203.733 201.333 C 203.440 201.627,203.200 206.667,203.200 212.533 L 203.200 223.200 205.200 223.200 L 207.200 223.200 207.200 212.000 C 207.200 200.699,206.505 198.561,203.733 201.333 M211.733 201.333 C 210.225 202.842,211.383 204.000,214.400 204.000 L 217.600 204.000 217.600 213.600 L 217.600 223.200 219.600 223.200 L 221.600 223.200 221.600 213.600 L 221.600 204.000 224.800 204.000 C 229.761 204.000,228.993 201.942,223.800 201.318 C 218.292 200.657,212.403 200.664,211.733 201.333 M232.000 208.188 C 232.000 212.362,231.771 217.447,231.491 219.488 L 230.983 223.200 237.491 223.200 C 242.743 223.200,244.000 222.968,244.000 222.000 C 244.000 221.079,242.978 220.800,239.600 220.800 L 235.200 220.800 235.200 217.200 L 235.200 213.600 239.200 213.600 C 242.086 213.600,243.200 213.290,243.200 212.486 C 243.200 211.084,241.457 210.400,237.886 210.400 C 235.160 210.400,235.108 210.339,235.352 207.400 L 235.600 204.400 239.800 204.434 C 243.317 204.463,244.000 204.235,244.000 203.034 C 244.000 201.874,243.332 201.600,240.500 201.600 C 238.575 201.600,235.875 201.375,234.500 201.100 L 232.000 200.600 232.000 208.188 M141.200 202.174 L 138.000 202.469 138.400 213.435 C 138.776 223.733,138.897 224.400,140.400 224.400 C 141.787 224.400,142.032 223.787,142.240 219.800 C 142.589 213.104,145.670 213.735,150.057 221.400 C 151.185 223.371,152.093 224.000,153.811 224.000 L 156.077 224.000 153.641 220.460 C 152.302 218.513,150.617 216.332,149.898 215.613 C 148.689 214.403,148.748 214.142,150.696 212.109 C 154.893 207.728,151.269 200.789,145.281 201.740 C 144.796 201.817,142.960 202.012,141.200 202.174 M254.914 202.388 C 240.479 206.934,247.558 228.220,262.200 224.296 C 266.145 223.238,264.309 221.043,259.792 221.417 C 254.155 221.885,251.200 219.278,251.200 213.838 C 251.200 207.382,254.896 204.213,261.305 205.174 C 264.113 205.595,264.800 205.462,264.800 204.496 C 264.800 202.326,259.022 201.094,254.914 202.388 M268.000 203.952 C 268.000 205.167,268.650 205.557,271.000 205.752 L 274.000 206.000 273.750 214.000 C 273.613 218.400,273.318 222.630,273.096 223.400 C 272.789 224.464,273.166 224.800,274.667 224.800 C 276.619 224.800,276.649 224.694,277.217 215.600 L 277.792 206.400 280.896 206.400 C 287.433 206.400,284.933 203.514,277.879 202.917 C 268.562 202.130,268.000 202.189,268.000 203.952 M121.369 203.754 C 121.159 204.109,119.666 208.720,118.052 214.000 C 116.437 219.280,114.967 224.050,114.783 224.600 C 114.579 225.214,115.188 225.600,116.362 225.600 C 117.833 225.600,118.394 225.050,118.798 223.209 C 119.442 220.276,119.524 220.224,124.595 219.552 L 128.698 219.007 129.908 221.904 C 131.094 224.741,134.428 226.155,134.379 223.800 C 134.248 217.371,123.296 200.497,121.369 203.754 M147.840 205.760 C 150.335 208.255,148.500 211.648,144.400 212.122 C 142.059 212.393,141.994 212.307,141.756 208.600 L 141.512 204.800 144.196 204.800 C 145.672 204.800,147.312 205.232,147.840 205.760 M127.190 215.800 C 127.196 216.438,126.021 216.800,123.946 216.800 C 121.226 216.800,120.759 216.570,121.098 215.400 C 121.322 214.630,121.936 212.380,122.463 210.400 L 123.421 206.800 125.300 210.800 C 126.334 213.000,127.184 215.250,127.190 215.800 M196.579 274.109 C 199.482 278.079,196.045 284.000,190.836 284.000 C 188.061 284.000,188.000 284.068,188.000 287.200 C 188.000 290.080,187.800 290.400,186.000 290.400 C 184.278 290.400,183.999 290.039,183.995 287.800 C 183.993 286.370,183.761 282.253,183.481 278.652 L 182.971 272.103 186.485 271.852 C 191.259 271.510,195.347 272.424,196.579 274.109 M214.053 273.350 C 213.804 274.000,213.600 274.877,213.600 275.300 C 213.600 275.723,212.250 275.964,210.600 275.835 C 208.013 275.632,207.565 275.848,207.344 277.400 C 207.115 279.018,207.424 279.200,210.400 279.200 C 215.114 279.200,214.934 282.656,210.200 283.048 C 205.604 283.429,205.922 286.216,210.600 286.554 C 213.426 286.759,214.043 287.104,214.256 288.600 C 214.501 290.331,214.278 290.400,208.456 290.400 L 202.400 290.400 202.400 281.251 L 202.400 272.101 205.000 271.851 C 210.168 271.352,214.542 272.077,214.053 273.350 M168.530 274.877 L 170.174 277.754 171.952 274.877 C 173.351 272.614,174.240 272.000,176.119 272.000 L 178.508 272.000 175.943 276.665 L 173.379 281.331 176.279 285.865 L 179.180 290.400 176.455 290.400 C 174.192 290.400,173.430 289.914,171.959 287.534 L 170.188 284.669 168.474 287.734 C 167.119 290.158,166.220 290.852,164.180 291.051 C 161.005 291.359,161.002 291.473,164.331 285.947 L 167.061 281.414 164.331 277.146 C 160.992 271.926,160.993 272.000,164.243 272.000 C 166.438 272.000,167.164 272.487,168.530 274.877 M232.487 273.984 C 234.062 276.138,233.867 278.933,232.011 280.789 C 230.425 282.375,230.427 282.387,232.811 286.146 C 235.773 290.817,235.775 291.200,232.834 291.200 C 230.875 291.200,230.104 290.580,228.358 287.600 C 225.674 283.021,224.000 282.867,224.000 287.200 C 224.000 290.080,223.800 290.400,222.000 290.400 L 220.000 290.400 220.000 281.110 L 220.000 271.819 225.687 272.141 C 230.111 272.391,231.622 272.800,232.487 273.984 M253.200 274.800 C 253.200 276.006,252.586 276.460,250.703 276.643 C 247.983 276.908,247.200 279.381,247.200 287.712 C 247.200 291.088,247.120 291.200,244.690 291.200 L 242.181 291.200 242.739 283.600 L 243.297 276.000 240.448 276.000 C 237.848 276.000,236.468 274.210,237.930 272.733 C 239.229 271.421,253.200 273.312,253.200 274.800 M156.800 274.391 C 156.800 275.628,156.089 276.095,153.600 276.493 C 149.300 277.180,148.909 280.000,153.114 280.000 C 154.858 280.000,156.003 280.455,156.317 281.272 C 157.070 283.234,156.164 284.000,153.094 284.000 C 148.684 284.000,149.677 286.718,154.207 287.046 C 157.204 287.263,157.600 287.520,157.600 289.246 C 157.600 291.139,157.419 291.200,151.772 291.200 L 145.944 291.200 145.709 282.000 L 145.474 272.800 151.137 272.800 C 156.255 272.800,156.800 272.953,156.800 274.391 M188.000 277.944 C 188.000 281.065,189.067 281.563,191.647 279.647 C 193.546 278.236,192.431 275.748,189.718 275.344 C 188.234 275.123,188.000 275.477,188.000 277.944 M224.800 277.600 C 224.800 279.421,225.165 280.000,226.314 280.000 C 228.446 280.000,229.227 277.491,227.491 276.221 C 225.375 274.674,224.800 274.969,224.800 277.600 M251.701 309.400 L 254.134 317.200 262.268 317.200 C 271.965 317.200,271.935 317.132,264.600 322.468 C 261.410 324.789,258.531 326.910,258.202 327.181 C 257.874 327.453,258.723 331.009,260.089 335.084 C 263.178 344.294,263.081 344.373,255.456 338.874 C 248.380 333.772,249.169 333.750,241.607 339.250 C 234.582 344.360,234.446 344.222,237.504 335.104 C 238.867 331.040,239.896 327.655,239.791 327.582 C 239.686 327.509,236.745 325.323,233.257 322.724 L 226.913 318.000 235.139 317.600 L 243.365 317.200 245.823 309.400 C 247.175 305.110,248.503 301.600,248.774 301.600 C 249.046 301.600,250.363 305.110,251.701 309.400 M154.081 310.600 L 156.498 318.000 165.203 318.400 L 173.907 318.800 166.901 323.886 C 161.575 327.751,160.025 329.286,160.437 330.286 C 161.593 333.087,164.895 344.171,164.647 344.419 C 164.503 344.563,161.419 342.552,157.793 339.949 L 151.200 335.217 144.663 340.005 C 141.068 342.638,137.971 344.637,137.781 344.447 C 137.509 344.175,140.185 335.296,142.170 329.886 C 142.355 329.383,139.353 326.683,135.499 323.886 L 128.493 318.800 137.197 318.400 L 145.902 318.000 148.319 310.600 C 149.649 306.530,150.945 303.200,151.200 303.200 C 151.455 303.200,152.751 306.530,154.081 310.600 M203.200 326.000 L 205.915 334.400 214.957 334.400 C 225.811 334.400,225.782 334.305,216.859 340.696 L 209.743 345.792 210.845 349.496 C 211.450 351.533,212.679 355.329,213.575 357.931 C 215.733 364.198,215.542 364.216,207.688 358.510 C 203.971 355.810,200.512 353.600,200.000 353.600 C 199.488 353.600,196.029 355.810,192.312 358.510 C 184.068 364.500,184.169 364.588,187.606 354.382 C 189.143 349.819,190.400 346.043,190.400 345.991 C 190.400 345.938,187.166 343.579,183.213 340.748 C 174.210 334.299,174.181 334.400,185.043 334.400 L 194.085 334.400 196.800 326.000 C 198.293 321.380,199.733 317.600,200.000 317.600 C 200.267 317.600,201.707 321.380,203.200 326.000 "></path>
    </g>
</svg>